<svg width="1200" height="514" viewBox="0 0 1200 514" fill="none" xmlns="http://www.w3.org/2000/svg">
<rect width="1200" height="514" fill="white"/>
<path d="M325.32 48.04H316.72V72H311.68V48.04H303.04V43.6H325.32V48.04ZM334.023 43.6V55.6L333.303 55.64C333.676 53.8 334.476 52.4533 335.703 51.6C336.956 50.7467 338.449 50.32 340.183 50.32C342.449 50.32 344.196 51.0667 345.423 52.56C346.676 54.0267 347.303 55.96 347.303 58.36V72H342.343V60.08C342.343 58.8267 342.223 57.8 341.983 57C341.743 56.2 341.343 55.6 340.783 55.2C340.249 54.7733 339.529 54.56 338.623 54.56C337.183 54.56 336.049 55.0267 335.223 55.96C334.423 56.8933 334.023 58.2667 334.023 60.08V72H329.063V43.6H334.023ZM357.382 50.8V72H352.422V50.8H357.382ZM357.502 43.6V47.8H352.342V43.6H357.502ZM375.64 57.56C375.427 56.4933 374.894 55.6533 374.04 55.04C373.214 54.4267 372.28 54.12 371.24 54.12C370.2 54.12 369.334 54.3733 368.64 54.88C367.974 55.3867 367.64 56.0533 367.64 56.88C367.667 57.7067 368.08 58.3467 368.88 58.8C369.68 59.2267 370.72 59.56 372 59.8C374.027 60.1467 375.68 60.5733 376.96 61.08C378.24 61.56 379.214 62.2267 379.88 63.08C380.574 63.9333 380.92 65.0267 380.92 66.36C380.92 67.72 380.52 68.8533 379.72 69.76C378.92 70.6667 377.84 71.3467 376.48 71.8C375.147 72.2533 373.64 72.48 371.96 72.48C370.067 72.48 368.387 72.1867 366.92 71.6C365.454 71.0133 364.294 70.1867 363.44 69.12C362.614 68.0267 362.134 66.7467 362 65.28L367.08 65C367.214 65.7733 367.48 66.4267 367.88 66.96C368.307 67.4933 368.854 67.9067 369.52 68.2C370.187 68.4933 370.974 68.64 371.88 68.64C372.92 68.64 373.827 68.44 374.6 68.04C375.4 67.64 375.8 67.0267 375.8 66.2C375.8 65.64 375.627 65.1867 375.28 64.84C374.96 64.4933 374.547 64.24 374.04 64.08C373.56 63.8933 372.894 63.7067 372.04 63.52C371.827 63.4933 371.534 63.4267 371.16 63.32C369.214 62.92 367.64 62.4933 366.44 62.04C365.24 61.5867 364.28 60.96 363.56 60.16C362.867 59.3333 362.52 58.28 362.52 57C362.52 55.64 362.88 54.4533 363.6 53.44C364.347 52.4267 365.387 51.6533 366.72 51.12C368.08 50.56 369.68 50.28 371.52 50.28C373.974 50.28 376.014 50.92 377.64 52.2C379.294 53.4533 380.294 55.16 380.64 57.32L375.64 57.56ZM393.876 61.4C393.876 59.16 394.303 57.2133 395.156 55.56C396.01 53.88 397.223 52.5867 398.796 51.68C400.37 50.7733 402.196 50.32 404.276 50.32C406.116 50.32 407.77 50.7333 409.236 51.56C410.703 52.3867 411.876 53.64 412.756 55.32C413.636 56.9733 414.103 59.0133 414.156 61.44V62.76H399.076C399.183 64.5733 399.69 65.9867 400.596 67C401.503 67.9867 402.73 68.48 404.276 68.48C405.263 68.48 406.156 68.2267 406.956 67.72C407.783 67.1867 408.396 66.4533 408.796 65.52L413.876 65.88C413.236 67.9067 412.036 69.52 410.276 70.72C408.543 71.8933 406.543 72.48 404.276 72.48C402.196 72.48 400.37 72.0267 398.796 71.12C397.223 70.2133 396.01 68.92 395.156 67.24C394.303 65.56 393.876 63.6133 393.876 61.4ZM409.036 59.36C408.823 57.6267 408.276 56.3467 407.396 55.52C406.543 54.6933 405.503 54.28 404.276 54.28C402.836 54.28 401.676 54.7333 400.796 55.64C399.916 56.52 399.356 57.76 399.116 59.36H409.036ZM424.146 43.6V66.6C424.146 67.08 424.266 67.4533 424.506 67.72C424.773 67.96 425.146 68.08 425.626 68.08H427.306V72H424.386C422.813 72 421.546 71.5333 420.586 70.6C419.653 69.6667 419.186 68.4 419.186 66.8V43.6H424.146ZM430.087 61.4C430.087 59.16 430.514 57.2133 431.367 55.56C432.221 53.88 433.434 52.5867 435.007 51.68C436.581 50.7733 438.407 50.32 440.487 50.32C442.327 50.32 443.981 50.7333 445.447 51.56C446.914 52.3867 448.087 53.64 448.967 55.32C449.847 56.9733 450.314 59.0133 450.367 61.44V62.76H435.287C435.394 64.5733 435.901 65.9867 436.807 67C437.714 67.9867 438.941 68.48 440.487 68.48C441.474 68.48 442.367 68.2267 443.167 67.72C443.994 67.1867 444.607 66.4533 445.007 65.52L450.087 65.88C449.447 67.9067 448.247 69.52 446.487 70.72C444.754 71.8933 442.754 72.48 440.487 72.48C438.407 72.48 436.581 72.0267 435.007 71.12C433.434 70.2133 432.221 68.92 431.367 67.24C430.514 65.56 430.087 63.6133 430.087 61.4ZM445.247 59.36C445.034 57.6267 444.487 56.3467 443.607 55.52C442.754 54.6933 441.714 54.28 440.487 54.28C439.047 54.28 437.887 54.7333 437.007 55.64C436.127 56.52 435.567 57.76 435.327 59.36H445.247ZM459.285 50.8L459.405 54.2C459.938 52.9733 460.711 52.0267 461.725 51.36C462.765 50.6667 463.991 50.32 465.405 50.32C466.898 50.32 468.165 50.7067 469.205 51.48C470.271 52.2267 471.031 53.2933 471.485 54.68C471.991 53.24 472.778 52.16 473.845 51.44C474.938 50.6933 476.258 50.32 477.805 50.32C479.218 50.32 480.445 50.6267 481.485 51.24C482.525 51.8533 483.325 52.76 483.885 53.96C484.445 55.16 484.725 56.6267 484.725 58.36V72H479.765V59.92C479.765 58.1067 479.471 56.7333 478.885 55.8C478.325 54.84 477.471 54.36 476.325 54.36C475.418 54.36 474.645 54.5733 474.005 55C473.365 55.4267 472.871 56.0533 472.525 56.88C472.205 57.7067 472.045 58.72 472.045 59.92V72H467.485V59.92C467.485 58.72 467.351 57.7067 467.085 56.88C466.845 56.0533 466.458 55.4267 465.925 55C465.418 54.5733 464.791 54.36 464.045 54.36C463.138 54.36 462.365 54.5867 461.725 55.04C461.085 55.4667 460.591 56.0933 460.245 56.92C459.925 57.7467 459.765 58.7467 459.765 59.92V72H454.805V50.8H459.285ZM488.681 61.4C488.681 59.16 489.108 57.2133 489.961 55.56C490.814 53.88 492.028 52.5867 493.601 51.68C495.174 50.7733 497.001 50.32 499.081 50.32C500.921 50.32 502.574 50.7333 504.041 51.56C505.508 52.3867 506.681 53.64 507.561 55.32C508.441 56.9733 508.908 59.0133 508.961 61.44V62.76H493.881C493.988 64.5733 494.494 65.9867 495.401 67C496.308 67.9867 497.534 68.48 499.081 68.48C500.068 68.48 500.961 68.2267 501.761 67.72C502.588 67.1867 503.201 66.4533 503.601 65.52L508.681 65.88C508.041 67.9067 506.841 69.52 505.081 70.72C503.348 71.8933 501.348 72.48 499.081 72.48C497.001 72.48 495.174 72.0267 493.601 71.12C492.028 70.2133 490.814 68.92 489.961 67.24C489.108 65.56 488.681 63.6133 488.681 61.4ZM503.841 59.36C503.628 57.6267 503.081 56.3467 502.201 55.52C501.348 54.6933 500.308 54.28 499.081 54.28C497.641 54.28 496.481 54.7333 495.601 55.64C494.721 56.52 494.161 57.76 493.921 59.36H503.841ZM517.878 50.8L518.118 56.68L517.478 56.32C517.798 54.2667 518.572 52.76 519.798 51.8C521.052 50.8133 522.585 50.32 524.398 50.32C526.718 50.32 528.505 51.0533 529.758 52.52C531.012 53.96 531.638 55.9067 531.638 58.36V72H526.678V59.92C526.678 58.6667 526.558 57.64 526.318 56.84C526.078 56.04 525.678 55.4267 525.118 55C524.585 54.5733 523.865 54.36 522.958 54.36C521.518 54.36 520.385 54.84 519.558 55.8C518.758 56.7333 518.358 58.1067 518.358 59.92V72H513.398V50.8H517.878ZM543.921 46V65.56C543.921 66.3867 544.121 67.0133 544.521 67.44C544.947 67.8667 545.547 68.08 546.321 68.08H549.521V72H545.561C543.401 72 541.761 71.4533 540.641 70.36C539.521 69.2667 538.961 67.6667 538.961 65.56V46H543.921ZM549.521 50.8V54.68H535.641V50.8H549.521ZM567.878 50.8L568.118 56.68L567.478 56.32C567.798 54.2667 568.572 52.76 569.798 51.8C571.052 50.8133 572.585 50.32 574.398 50.32C576.718 50.32 578.505 51.0533 579.758 52.52C581.012 53.96 581.638 55.9067 581.638 58.36V72H576.678V59.92C576.678 58.6667 576.558 57.64 576.318 56.84C576.078 56.04 575.678 55.4267 575.118 55C574.585 54.5733 573.865 54.36 572.958 54.36C571.518 54.36 570.385 54.84 569.558 55.8C568.758 56.7333 568.358 58.1067 568.358 59.92V72H563.398V50.8H567.878ZM585.595 61.4C585.595 59.16 586.022 57.2133 586.875 55.56C587.728 53.88 588.942 52.5867 590.515 51.68C592.088 50.7733 593.915 50.32 595.995 50.32C597.835 50.32 599.488 50.7333 600.955 51.56C602.422 52.3867 603.595 53.64 604.475 55.32C605.355 56.9733 605.822 59.0133 605.875 61.44V62.76H590.795C590.902 64.5733 591.408 65.9867 592.315 67C593.222 67.9867 594.448 68.48 595.995 68.48C596.982 68.48 597.875 68.2267 598.675 67.72C599.502 67.1867 600.115 66.4533 600.515 65.52L605.595 65.88C604.955 67.9067 603.755 69.52 601.995 70.72C600.262 71.8933 598.262 72.48 595.995 72.48C593.915 72.48 592.088 72.0267 590.515 71.12C588.942 70.2133 587.728 68.92 586.875 67.24C586.022 65.56 585.595 63.6133 585.595 61.4ZM600.755 59.36C600.542 57.6267 599.995 56.3467 599.115 55.52C598.262 54.6933 597.222 54.28 595.995 54.28C594.555 54.28 593.395 54.7333 592.515 55.64C591.635 56.52 591.075 57.76 590.835 59.36H600.755ZM609.345 61.4C609.345 59.16 609.772 57.2133 610.625 55.56C611.478 53.88 612.692 52.5867 614.265 51.68C615.838 50.7733 617.665 50.32 619.745 50.32C621.585 50.32 623.238 50.7333 624.705 51.56C626.172 52.3867 627.345 53.64 628.225 55.32C629.105 56.9733 629.572 59.0133 629.625 61.44V62.76H614.545C614.652 64.5733 615.158 65.9867 616.065 67C616.972 67.9867 618.198 68.48 619.745 68.48C620.732 68.48 621.625 68.2267 622.425 67.72C623.252 67.1867 623.865 66.4533 624.265 65.52L629.345 65.88C628.705 67.9067 627.505 69.52 625.745 70.72C624.012 71.8933 622.012 72.48 619.745 72.48C617.665 72.48 615.838 72.0267 614.265 71.12C612.692 70.2133 611.478 68.92 610.625 67.24C609.772 65.56 609.345 63.6133 609.345 61.4ZM624.505 59.36C624.292 57.6267 623.745 56.3467 622.865 55.52C622.012 54.6933 620.972 54.28 619.745 54.28C618.305 54.28 617.145 54.7333 616.265 55.64C615.385 56.52 614.825 57.76 614.585 59.36H624.505ZM648.415 43.6H653.375V72H648.695L648.575 69C647.962 70.12 647.095 70.9867 645.975 71.6C644.882 72.1867 643.575 72.48 642.055 72.48C640.108 72.48 638.455 71.9867 637.095 71C635.762 70.0133 634.762 68.68 634.095 67C633.428 65.32 633.095 63.4533 633.095 61.4C633.095 59.3467 633.428 57.48 634.095 55.8C634.762 54.12 635.762 52.7867 637.095 51.8C638.455 50.8133 640.108 50.32 642.055 50.32C643.522 50.32 644.788 50.6 645.855 51.16C646.922 51.72 647.775 52.5467 648.415 53.64V43.6ZM648.175 64.88C648.548 63.8133 648.735 62.6533 648.735 61.4C648.735 60.0667 648.548 58.8667 648.175 57.8C647.802 56.7333 647.215 55.88 646.415 55.24C645.615 54.5733 644.628 54.24 643.455 54.24C641.695 54.24 640.375 54.92 639.495 56.28C638.615 57.64 638.175 59.3467 638.175 61.4C638.175 63.3733 638.615 65.04 639.495 66.4C640.402 67.7333 641.722 68.4 643.455 68.4C644.655 68.4 645.642 68.08 646.415 67.44C647.215 66.8 647.802 65.9467 648.175 64.88ZM671.578 57.56C671.364 56.4933 670.831 55.6533 669.978 55.04C669.151 54.4267 668.218 54.12 667.178 54.12C666.138 54.12 665.271 54.3733 664.578 54.88C663.911 55.3867 663.578 56.0533 663.578 56.88C663.604 57.7067 664.018 58.3467 664.818 58.8C665.618 59.2267 666.658 59.56 667.938 59.8C669.964 60.1467 671.618 60.5733 672.898 61.08C674.178 61.56 675.151 62.2267 675.818 63.08C676.511 63.9333 676.858 65.0267 676.858 66.36C676.858 67.72 676.458 68.8533 675.658 69.76C674.858 70.6667 673.778 71.3467 672.418 71.8C671.084 72.2533 669.578 72.48 667.898 72.48C666.004 72.48 664.324 72.1867 662.858 71.6C661.391 71.0133 660.231 70.1867 659.378 69.12C658.551 68.0267 658.071 66.7467 657.938 65.28L663.018 65C663.151 65.7733 663.418 66.4267 663.818 66.96C664.244 67.4933 664.791 67.9067 665.458 68.2C666.124 68.4933 666.911 68.64 667.818 68.64C668.858 68.64 669.764 68.44 670.538 68.04C671.338 67.64 671.738 67.0267 671.738 66.2C671.738 65.64 671.564 65.1867 671.218 64.84C670.898 64.4933 670.484 64.24 669.978 64.08C669.498 63.8933 668.831 63.7067 667.978 63.52C667.764 63.4933 667.471 63.4267 667.098 63.32C665.151 62.92 663.578 62.4933 662.378 62.04C661.178 61.5867 660.218 60.96 659.498 60.16C658.804 59.3333 658.458 58.28 658.458 57C658.458 55.64 658.818 54.4533 659.538 53.44C660.284 52.4267 661.324 51.6533 662.658 51.12C664.018 50.56 665.618 50.28 667.458 50.28C669.911 50.28 671.951 50.92 673.578 52.2C675.231 53.4533 676.231 55.16 676.578 57.32L671.578 57.56ZM690.134 57.24C690.56 55.0533 691.587 53.36 693.214 52.16C694.84 50.9333 696.934 50.32 699.494 50.32C702.534 50.32 704.84 51.0933 706.414 52.64C707.987 54.1867 708.774 56.44 708.774 59.4V66.8C708.774 67.36 708.88 67.76 709.094 68C709.334 68.2133 709.667 68.32 710.094 68.32H710.894V72L709.654 72.04H709.494C708.774 72.0667 708.04 72.0133 707.294 71.88C706.574 71.7467 705.934 71.44 705.374 70.96C704.814 70.48 704.494 69.7467 704.414 68.76C703.88 69.8533 703.014 70.7467 701.814 71.44C700.614 72.1333 699.147 72.48 697.414 72.48C695.227 72.48 693.4 71.9333 691.934 70.84C690.494 69.72 689.774 68.2533 689.774 66.44C689.774 65.1067 690.08 64.0267 690.694 63.2C691.334 62.3733 692.214 61.72 693.334 61.24C694.48 60.76 695.974 60.3467 697.814 60L703.774 58.8C703.747 57.1733 703.387 55.9733 702.694 55.2C702 54.4 700.934 54 699.494 54C698.374 54 697.44 54.3067 696.694 54.92C695.974 55.5067 695.48 56.3733 695.214 57.52L690.134 57.24ZM694.894 66.28C694.894 67.0533 695.214 67.6933 695.854 68.2C696.52 68.68 697.467 68.92 698.694 68.92C699.68 68.92 700.56 68.68 701.334 68.2C702.134 67.72 702.747 67 703.174 66.04C703.627 65.0533 703.854 63.8667 703.854 62.48V62.28L699.774 63L699.054 63.12C698.067 63.3067 697.294 63.4933 696.734 63.68C696.2 63.8667 695.76 64.1733 695.414 64.6C695.067 65 694.894 65.56 694.894 66.28ZM729.128 50.8L729.368 56.68L728.728 56.32C729.048 54.2667 729.822 52.76 731.048 51.8C732.302 50.8133 733.835 50.32 735.648 50.32C737.968 50.32 739.755 51.0533 741.008 52.52C742.262 53.96 742.888 55.9067 742.888 58.36V72H737.928V59.92C737.928 58.6667 737.808 57.64 737.568 56.84C737.328 56.04 736.928 55.4267 736.368 55C735.835 54.5733 735.115 54.36 734.208 54.36C732.768 54.36 731.635 54.84 730.808 55.8C730.008 56.7333 729.608 58.1067 729.608 59.92V72H724.648V50.8H729.128ZM746.845 61.4C746.845 59.16 747.272 57.2133 748.125 55.56C748.978 53.88 750.192 52.5867 751.765 51.68C753.338 50.7733 755.165 50.32 757.245 50.32C759.085 50.32 760.738 50.7333 762.205 51.56C763.672 52.3867 764.845 53.64 765.725 55.32C766.605 56.9733 767.072 59.0133 767.125 61.44V62.76H752.045C752.152 64.5733 752.658 65.9867 753.565 67C754.472 67.9867 755.698 68.48 757.245 68.48C758.232 68.48 759.125 68.2267 759.925 67.72C760.752 67.1867 761.365 66.4533 761.765 65.52L766.845 65.88C766.205 67.9067 765.005 69.52 763.245 70.72C761.512 71.8933 759.512 72.48 757.245 72.48C755.165 72.48 753.338 72.0267 751.765 71.12C750.192 70.2133 748.978 68.92 748.125 67.24C747.272 65.56 746.845 63.6133 746.845 61.4ZM762.005 59.36C761.792 57.6267 761.245 56.3467 760.365 55.52C759.512 54.6933 758.472 54.28 757.245 54.28C755.805 54.28 754.645 54.7333 753.765 55.64C752.885 56.52 752.325 57.76 752.085 59.36H762.005ZM791.142 66.32L795.502 50.8H800.382L793.942 72H788.742L784.502 57.56L780.262 72H775.062L768.622 50.8H773.502L777.862 66.32L782.302 50.8H786.702L791.142 66.32ZM826.109 57.56C825.896 56.4933 825.362 55.6533 824.509 55.04C823.682 54.4267 822.749 54.12 821.709 54.12C820.669 54.12 819.802 54.3733 819.109 54.88C818.442 55.3867 818.109 56.0533 818.109 56.88C818.136 57.7067 818.549 58.3467 819.349 58.8C820.149 59.2267 821.189 59.56 822.469 59.8C824.496 60.1467 826.149 60.5733 827.429 61.08C828.709 61.56 829.682 62.2267 830.349 63.08C831.042 63.9333 831.389 65.0267 831.389 66.36C831.389 67.72 830.989 68.8533 830.189 69.76C829.389 70.6667 828.309 71.3467 826.949 71.8C825.616 72.2533 824.109 72.48 822.429 72.48C820.536 72.48 818.856 72.1867 817.389 71.6C815.922 71.0133 814.762 70.1867 813.909 69.12C813.082 68.0267 812.602 66.7467 812.469 65.28L817.549 65C817.682 65.7733 817.949 66.4267 818.349 66.96C818.776 67.4933 819.322 67.9067 819.989 68.2C820.656 68.4933 821.442 68.64 822.349 68.64C823.389 68.64 824.296 68.44 825.069 68.04C825.869 67.64 826.269 67.0267 826.269 66.2C826.269 65.64 826.096 65.1867 825.749 64.84C825.429 64.4933 825.016 64.24 824.509 64.08C824.029 63.8933 823.362 63.7067 822.509 63.52C822.296 63.4933 822.002 63.4267 821.629 63.32C819.682 62.92 818.109 62.4933 816.909 62.04C815.709 61.5867 814.749 60.96 814.029 60.16C813.336 59.3333 812.989 58.28 812.989 57C812.989 55.64 813.349 54.4533 814.069 53.44C814.816 52.4267 815.856 51.6533 817.189 51.12C818.549 50.56 820.149 50.28 821.989 50.28C824.442 50.28 826.482 50.92 828.109 52.2C829.762 53.4533 830.762 55.16 831.109 57.32L826.109 57.56ZM842.241 46V65.56C842.241 66.3867 842.441 67.0133 842.841 67.44C843.268 67.8667 843.868 68.08 844.641 68.08H847.841V72H843.881C841.721 72 840.081 71.4533 838.961 70.36C837.841 69.2667 837.281 67.6667 837.281 65.56V46H842.241ZM847.841 50.8V54.68H833.961V50.8H847.841ZM854.948 50.8L860.628 66.8L866.148 50.8H871.028L862.588 74.28C862.134 75.56 861.468 76.4933 860.588 77.08C859.708 77.6933 858.574 78 857.188 78H853.948V74.16H856.348C856.934 74.16 857.401 74.04 857.748 73.8C858.094 73.5867 858.361 73.24 858.548 72.76L859.188 71.2H857.708L850.068 50.8H854.948ZM880.123 43.6V66.6C880.123 67.08 880.243 67.4533 880.483 67.72C880.749 67.96 881.123 68.08 881.603 68.08H883.283V72H880.363C878.789 72 877.523 71.5333 876.563 70.6C875.629 69.6667 875.163 68.4 875.163 66.8V43.6H880.123ZM886.064 61.4C886.064 59.16 886.49 57.2133 887.344 55.56C888.197 53.88 889.41 52.5867 890.984 51.68C892.557 50.7733 894.384 50.32 896.464 50.32C898.304 50.32 899.957 50.7333 901.424 51.56C902.89 52.3867 904.064 53.64 904.944 55.32C905.824 56.9733 906.29 59.0133 906.344 61.44V62.76H891.264C891.37 64.5733 891.877 65.9867 892.784 67C893.69 67.9867 894.917 68.48 896.464 68.48C897.45 68.48 898.344 68.2267 899.144 67.72C899.97 67.1867 900.584 66.4533 900.984 65.52L906.064 65.88C905.424 67.9067 904.224 69.52 902.464 70.72C900.73 71.8933 898.73 72.48 896.464 72.48C894.384 72.48 892.557 72.0267 890.984 71.12C889.41 70.2133 888.197 68.92 887.344 67.24C886.49 65.56 886.064 63.6133 886.064 61.4ZM901.224 59.36C901.01 57.6267 900.464 56.3467 899.584 55.52C898.73 54.6933 897.69 54.28 896.464 54.28C895.024 54.28 893.864 54.7333 892.984 55.64C892.104 56.52 891.544 57.76 891.304 59.36H901.224Z" fill="black"/>
<rect x="38.5" y="214.5" width="388" height="65" stroke="black"/>
<mask id="path-3-inside-1_1_2" fill="white">
<path d="M38 280H427V346H38V280Z"/>
</mask>
<path d="M427 346V347H428V346H427ZM38 346H37V347H38V346ZM426 280V346H428V280H426ZM427 345H38V347H427V345ZM39 346V280H37V346H39Z" fill="black" mask="url(#path-3-inside-1_1_2)"/>
<mask id="path-5-inside-2_1_2" fill="white">
<path d="M38 346H427V412H38V346Z"/>
</mask>
<path d="M427 412V413H428V412H427ZM38 412H37V413H38V412ZM426 346V412H428V346H426ZM427 411H38V413H427V411ZM39 412V346H37V412H39Z" fill="black" mask="url(#path-5-inside-2_1_2)"/>
<mask id="path-7-inside-3_1_2" fill="white">
<path d="M38 412H427V478H38V412Z"/>
</mask>
<path d="M427 478V479H428V478H427ZM38 478H37V479H38V478ZM426 412V478H428V412H426ZM427 477H38V479H427V477ZM39 478V412H37V478H39Z" fill="black" mask="url(#path-7-inside-3_1_2)"/>
<path d="M180.744 176.96L183.888 189.824L187.056 176.96H189.912L193.104 189.824L196.224 176.96H199.44L194.904 194H191.52L188.496 182.48L185.496 194H182.112L177.552 176.96H180.744ZM204.768 181.28V194H201.792V181.28H204.768ZM204.84 176.96V179.48H201.744V176.96H204.84ZM211.949 178.4V190.136C211.949 190.632 212.069 191.008 212.309 191.264C212.565 191.52 212.925 191.648 213.389 191.648H215.309V194H212.933C211.637 194 210.653 193.672 209.981 193.016C209.309 192.36 208.973 191.4 208.973 190.136V178.4H211.949ZM215.309 181.28V183.608H206.981V181.28H215.309ZM220.893 176.96V184.16L220.461 184.184C220.685 183.08 221.165 182.272 221.901 181.76C222.653 181.248 223.549 180.992 224.589 180.992C225.949 180.992 226.997 181.44 227.733 182.336C228.485 183.216 228.861 184.376 228.861 185.816V194H225.885V186.848C225.885 186.096 225.813 185.48 225.669 185C225.525 184.52 225.285 184.16 224.949 183.92C224.629 183.664 224.197 183.536 223.653 183.536C222.789 183.536 222.109 183.816 221.613 184.376C221.133 184.936 220.893 185.76 220.893 186.848V194H217.917V176.96H220.893ZM252.522 188.384C252.17 190.224 251.37 191.688 250.122 192.776C248.89 193.848 247.29 194.384 245.322 194.384C243.706 194.384 242.29 194 241.074 193.232C239.874 192.448 238.946 191.384 238.29 190.04C237.634 188.696 237.306 187.184 237.306 185.504C237.306 183.824 237.626 182.304 238.266 180.944C238.922 179.584 239.858 178.52 241.074 177.752C242.29 176.968 243.706 176.576 245.322 176.576C247.194 176.576 248.746 177.088 249.978 178.112C251.21 179.136 252.026 180.52 252.426 182.264L249.282 182.432C249.042 181.44 248.578 180.664 247.89 180.104C247.202 179.528 246.338 179.24 245.298 179.24C244.21 179.24 243.298 179.512 242.562 180.056C241.842 180.6 241.306 181.352 240.954 182.312C240.602 183.256 240.426 184.32 240.426 185.504C240.426 186.688 240.602 187.744 240.954 188.672C241.306 189.6 241.842 190.344 242.562 190.904C243.298 191.448 244.21 191.72 245.298 191.72C246.386 191.72 247.274 191.408 247.962 190.784C248.666 190.144 249.13 189.288 249.354 188.216L252.522 188.384ZM257.845 188.288C257.989 188.96 258.237 189.552 258.589 190.064C258.941 190.56 259.405 190.944 259.981 191.216C260.557 191.488 261.229 191.624 261.997 191.624C262.637 191.624 263.181 191.544 263.629 191.384C264.093 191.224 264.453 190.984 264.709 190.664C264.965 190.344 265.085 189.952 265.069 189.488C265.069 188.784 264.741 188.2 264.085 187.736C263.445 187.256 262.373 186.832 260.869 186.464C259.061 186.032 257.653 185.416 256.645 184.616C255.637 183.816 255.133 182.768 255.133 181.472C255.133 180.48 255.381 179.616 255.877 178.88C256.389 178.144 257.101 177.576 258.013 177.176C258.941 176.776 260.005 176.576 261.205 176.576C262.437 176.576 263.533 176.816 264.493 177.296C265.469 177.76 266.237 178.416 266.797 179.264C267.373 180.112 267.733 181.088 267.877 182.192L264.805 182.36C264.741 181.72 264.541 181.168 264.205 180.704C263.885 180.224 263.461 179.856 262.933 179.6C262.405 179.344 261.813 179.216 261.157 179.216C260.277 179.216 259.565 179.424 259.021 179.84C258.477 180.256 258.213 180.808 258.229 181.496C258.229 181.992 258.397 182.408 258.733 182.744C259.085 183.08 259.501 183.344 259.981 183.536C260.461 183.712 261.093 183.904 261.877 184.112L262.237 184.208C264.093 184.672 265.541 185.32 266.581 186.152C267.637 186.984 268.165 188.04 268.165 189.32C268.165 190.36 267.885 191.256 267.325 192.008C266.765 192.76 266.005 193.328 265.045 193.712C264.085 194.096 263.029 194.288 261.877 194.288C260.565 194.288 259.381 194.048 258.325 193.568C257.285 193.088 256.453 192.408 255.829 191.528C255.221 190.648 254.869 189.624 254.773 188.456L257.845 188.288ZM273.852 188.288C273.996 188.96 274.244 189.552 274.596 190.064C274.948 190.56 275.412 190.944 275.988 191.216C276.564 191.488 277.236 191.624 278.004 191.624C278.644 191.624 279.188 191.544 279.636 191.384C280.1 191.224 280.46 190.984 280.716 190.664C280.972 190.344 281.092 189.952 281.076 189.488C281.076 188.784 280.748 188.2 280.092 187.736C279.452 187.256 278.38 186.832 276.876 186.464C275.068 186.032 273.66 185.416 272.652 184.616C271.644 183.816 271.14 182.768 271.14 181.472C271.14 180.48 271.388 179.616 271.884 178.88C272.396 178.144 273.108 177.576 274.02 177.176C274.948 176.776 276.012 176.576 277.212 176.576C278.444 176.576 279.54 176.816 280.5 177.296C281.476 177.76 282.244 178.416 282.804 179.264C283.38 180.112 283.74 181.088 283.884 182.192L280.812 182.36C280.748 181.72 280.548 181.168 280.212 180.704C279.892 180.224 279.468 179.856 278.94 179.6C278.412 179.344 277.82 179.216 277.164 179.216C276.284 179.216 275.572 179.424 275.028 179.84C274.484 180.256 274.22 180.808 274.236 181.496C274.236 181.992 274.404 182.408 274.74 182.744C275.092 183.08 275.508 183.344 275.988 183.536C276.468 183.712 277.1 183.904 277.884 184.112L278.244 184.208C280.1 184.672 281.548 185.32 282.588 186.152C283.644 186.984 284.172 188.04 284.172 189.32C284.172 190.36 283.892 191.256 283.332 192.008C282.772 192.76 282.012 193.328 281.052 193.712C280.092 194.096 279.036 194.288 277.884 194.288C276.572 194.288 275.388 194.048 274.332 193.568C273.292 193.088 272.46 192.408 271.836 191.528C271.228 190.648 270.876 189.624 270.78 188.456L273.852 188.288Z" fill="black"/>
<path d="M114.123 249.624C113.803 251.368 113.051 252.768 111.867 253.824C110.683 254.864 109.147 255.384 107.259 255.384C105.659 255.384 104.283 255 103.131 254.232C101.979 253.448 101.091 252.384 100.467 251.04C99.8589 249.696 99.5549 248.184 99.5549 246.504C99.5549 244.824 99.8589 243.304 100.467 241.944C101.075 240.584 101.955 239.52 103.107 238.752C104.275 237.968 105.659 237.576 107.259 237.576C109.003 237.576 110.459 238.072 111.627 239.064C112.811 240.04 113.595 241.336 113.979 242.952L111.867 243.096C111.579 242.008 111.035 241.144 110.235 240.504C109.451 239.864 108.459 239.544 107.259 239.544C106.011 239.544 104.963 239.856 104.115 240.48C103.283 241.104 102.667 241.944 102.267 243C101.867 244.04 101.667 245.208 101.667 246.504C101.667 247.8 101.867 248.968 102.267 250.008C102.667 251.032 103.291 251.856 104.139 252.48C104.987 253.104 106.027 253.416 107.259 253.416C108.523 253.416 109.555 253.064 110.355 252.36C111.171 251.64 111.707 250.68 111.963 249.48L114.123 249.624ZM119.192 237.96V245.112L118.904 244.776C119.16 243.864 119.664 243.176 120.416 242.712C121.168 242.232 122.032 241.992 123.008 241.992C124.4 241.992 125.464 242.44 126.2 243.336C126.936 244.232 127.304 245.392 127.304 246.816V255H125.336V247.536C125.336 246.736 125.24 246.064 125.048 245.52C124.856 244.976 124.56 244.568 124.16 244.296C123.76 244.008 123.24 243.864 122.6 243.864C121.544 243.864 120.712 244.184 120.104 244.824C119.496 245.464 119.192 246.368 119.192 247.536V255H117.224V237.96H119.192ZM129.976 248.64C129.976 247.296 130.216 246.128 130.696 245.136C131.176 244.128 131.848 243.352 132.712 242.808C133.592 242.264 134.616 241.992 135.784 241.992C136.776 241.992 137.672 242.216 138.472 242.664C139.288 243.112 139.944 243.816 140.44 244.776C140.952 245.736 141.24 246.936 141.304 248.376L141.328 249.264H132.064C132.16 250.576 132.528 251.6 133.168 252.336C133.824 253.056 134.696 253.416 135.784 253.416C136.488 253.416 137.128 253.224 137.704 252.84C138.28 252.456 138.712 251.928 139 251.256L141.112 251.4C140.744 252.584 140.072 253.528 139.096 254.232C138.12 254.936 137.016 255.288 135.784 255.288C134.616 255.288 133.592 255.016 132.712 254.472C131.848 253.928 131.176 253.16 130.696 252.168C130.216 251.16 129.976 249.984 129.976 248.64ZM139.168 247.512C138.992 246.248 138.6 245.328 137.992 244.752C137.384 244.16 136.648 243.864 135.784 243.864C134.76 243.864 133.936 244.184 133.312 244.824C132.688 245.448 132.288 246.344 132.112 247.512H139.168ZM152.593 246.528C152.465 245.712 152.097 245.064 151.489 244.584C150.881 244.104 150.177 243.864 149.377 243.864C148.193 243.864 147.273 244.288 146.617 245.136C145.961 245.968 145.633 247.136 145.633 248.64C145.633 250.144 145.961 251.32 146.617 252.168C147.273 253 148.193 253.416 149.377 253.416C150.209 253.416 150.929 253.16 151.537 252.648C152.161 252.12 152.545 251.408 152.689 250.512L154.777 250.632C154.649 251.576 154.329 252.4 153.817 253.104C153.305 253.808 152.657 254.352 151.873 254.736C151.105 255.104 150.273 255.288 149.377 255.288C148.209 255.288 147.185 255.016 146.305 254.472C145.441 253.928 144.769 253.16 144.289 252.168C143.809 251.16 143.569 249.984 143.569 248.64C143.569 247.296 143.809 246.128 144.289 245.136C144.769 244.128 145.441 243.352 146.305 242.808C147.185 242.264 148.209 241.992 149.377 241.992C150.241 241.992 151.057 242.176 151.825 242.544C152.593 242.896 153.225 243.408 153.721 244.08C154.233 244.752 154.545 245.528 154.657 246.408L152.593 246.528ZM159.574 237.96V249.168L165.766 242.28H168.454L163.414 247.68L168.694 255H166.27L162.07 249.024L159.574 251.736V255H157.606V237.96H159.574ZM179.128 241.44C179.128 240.352 179.408 239.504 179.968 238.896C180.544 238.272 181.4 237.96 182.536 237.96H184.456V239.712H182.512C182.096 239.712 181.752 239.864 181.48 240.168C181.224 240.472 181.096 240.888 181.096 241.416V255H179.128V241.44ZM177.4 242.28H184.312V244.032H177.4V242.28ZM191.682 255.288C190.514 255.288 189.49 255.016 188.61 254.472C187.746 253.928 187.074 253.16 186.594 252.168C186.114 251.16 185.874 249.984 185.874 248.64C185.874 247.296 186.114 246.128 186.594 245.136C187.074 244.128 187.746 243.352 188.61 242.808C189.49 242.264 190.514 241.992 191.682 241.992C192.85 241.992 193.866 242.264 194.73 242.808C195.61 243.352 196.29 244.128 196.77 245.136C197.25 246.128 197.49 247.296 197.49 248.64C197.49 249.984 197.25 251.16 196.77 252.168C196.29 253.16 195.61 253.928 194.73 254.472C193.866 255.016 192.85 255.288 191.682 255.288ZM191.682 253.416C192.866 253.416 193.786 253 194.442 252.168C195.098 251.32 195.426 250.144 195.426 248.64C195.426 247.136 195.098 245.968 194.442 245.136C193.786 244.288 192.866 243.864 191.682 243.864C190.498 243.864 189.578 244.288 188.922 245.136C188.266 245.968 187.938 247.136 187.938 248.64C187.938 250.144 188.266 251.32 188.922 252.168C189.578 253 190.498 253.416 191.682 253.416ZM202.272 242.28L202.368 245.64L202.176 245.448C202.336 244.344 202.672 243.544 203.184 243.048C203.696 242.536 204.432 242.28 205.392 242.28H206.616V244.032H205.392C204.752 244.032 204.216 244.16 203.784 244.416C203.352 244.672 203.032 245.056 202.824 245.568C202.616 246.064 202.512 246.68 202.512 247.416V255H200.544V242.28H202.272ZM214.866 248.64C214.866 247.296 215.106 246.128 215.586 245.136C216.066 244.128 216.738 243.352 217.602 242.808C218.482 242.264 219.506 241.992 220.674 241.992C221.666 241.992 222.562 242.216 223.362 242.664C224.178 243.112 224.834 243.816 225.33 244.776C225.842 245.736 226.13 246.936 226.194 248.376L226.218 249.264H216.954C217.05 250.576 217.418 251.6 218.058 252.336C218.714 253.056 219.586 253.416 220.674 253.416C221.378 253.416 222.018 253.224 222.594 252.84C223.17 252.456 223.602 251.928 223.89 251.256L226.002 251.4C225.634 252.584 224.962 253.528 223.986 254.232C223.01 254.936 221.906 255.288 220.674 255.288C219.506 255.288 218.482 255.016 217.602 254.472C216.738 253.928 216.066 253.16 215.586 252.168C215.106 251.16 214.866 249.984 214.866 248.64ZM224.058 247.512C223.882 246.248 223.49 245.328 222.882 244.752C222.274 244.16 221.538 243.864 220.674 243.864C219.65 243.864 218.826 244.184 218.202 244.824C217.578 245.448 217.178 246.344 217.002 247.512H224.058ZM238.785 242.28L234.393 248.496L239.001 255H236.601L233.145 250.008L229.665 255H227.265L231.921 248.472L227.505 242.28H229.905L233.145 246.984L236.361 242.28H238.785ZM244.16 242.28V255H242.192V242.28H244.16ZM244.208 238.008V240.288H242.144V238.008H244.208ZM255.463 246.192C255.319 245.488 254.943 244.928 254.335 244.512C253.727 244.08 253.047 243.864 252.295 243.864C251.559 243.864 250.943 244.048 250.447 244.416C249.951 244.768 249.703 245.24 249.703 245.832C249.719 246.408 250.007 246.856 250.567 247.176C251.143 247.48 251.879 247.728 252.775 247.92C253.863 248.128 254.759 248.376 255.463 248.664C256.183 248.936 256.743 249.32 257.143 249.816C257.559 250.312 257.767 250.96 257.767 251.76C257.767 252.544 257.527 253.2 257.047 253.728C256.583 254.256 255.975 254.648 255.223 254.904C254.471 255.16 253.671 255.288 252.823 255.288C251.815 255.288 250.903 255.112 250.087 254.76C249.287 254.408 248.639 253.912 248.143 253.272C247.663 252.616 247.391 251.864 247.327 251.016L249.391 250.872C249.487 251.384 249.679 251.832 249.967 252.216C250.255 252.6 250.639 252.896 251.119 253.104C251.615 253.312 252.183 253.416 252.823 253.416C253.591 253.416 254.263 253.28 254.839 253.008C255.415 252.72 255.703 252.272 255.703 251.664C255.703 251.232 255.575 250.896 255.319 250.656C255.079 250.416 254.783 250.24 254.431 250.128C254.095 250 253.623 249.872 253.015 249.744C252.871 249.712 252.671 249.664 252.415 249.6C251.423 249.376 250.599 249.136 249.943 248.88C249.287 248.624 248.743 248.264 248.311 247.8C247.879 247.32 247.663 246.704 247.663 245.952C247.647 245.152 247.839 244.456 248.239 243.864C248.655 243.272 249.231 242.816 249.967 242.496C250.703 242.16 251.551 241.992 252.511 241.992C253.791 241.992 254.895 242.368 255.823 243.12C256.751 243.856 257.319 244.832 257.527 246.048L255.463 246.192ZM263.456 239.4V251.64C263.456 252.184 263.584 252.592 263.84 252.864C264.112 253.12 264.496 253.248 264.992 253.248H266.816V255H264.992C263.872 255 263.008 254.712 262.4 254.136C261.792 253.544 261.488 252.712 261.488 251.64V239.4H263.456ZM266.84 242.28V244.032H259.616V242.28H266.84ZM271.746 242.28V255H269.778V242.28H271.746ZM271.794 238.008V240.288H269.73V238.008H271.794ZM277.274 242.28L277.37 245.544L277.106 245.28C277.314 244.192 277.794 243.376 278.546 242.832C279.298 242.272 280.202 241.992 281.258 241.992C282.65 241.992 283.714 242.44 284.45 243.336C285.186 244.232 285.554 245.392 285.554 246.816V255H283.586V247.392C283.586 246.592 283.49 245.928 283.298 245.4C283.106 244.856 282.81 244.448 282.41 244.176C282.01 243.888 281.49 243.744 280.85 243.744C279.794 243.744 278.962 244.064 278.354 244.704C277.746 245.328 277.442 246.224 277.442 247.392V255H275.474V242.28H277.274ZM293.938 254.328C292.786 254.328 291.778 254.064 290.914 253.536C290.066 253.008 289.402 252.28 288.922 251.352C288.458 250.408 288.226 249.344 288.226 248.16C288.226 246.976 288.466 245.92 288.946 244.992C289.426 244.048 290.098 243.312 290.962 242.784C291.826 242.256 292.818 241.992 293.938 241.992C294.786 241.992 295.538 242.208 296.194 242.64C296.85 243.056 297.314 243.616 297.586 244.32V242.28H299.482V253.752C299.482 254.856 299.242 255.792 298.762 256.56C298.298 257.328 297.642 257.904 296.794 258.288C295.962 258.688 294.994 258.888 293.89 258.888C292.994 258.888 292.178 258.736 291.442 258.432C290.706 258.128 290.09 257.696 289.594 257.136C289.098 256.576 288.762 255.928 288.586 255.192L290.65 255.048C290.906 255.672 291.306 256.152 291.85 256.488C292.41 256.84 293.09 257.016 293.89 257.016C295.026 257.016 295.914 256.768 296.554 256.272C297.194 255.792 297.514 255.096 297.514 254.184V252.072C297.13 252.792 296.61 253.352 295.954 253.752C295.314 254.136 294.642 254.328 293.938 254.328ZM290.29 248.16C290.29 248.992 290.434 249.736 290.722 250.392C291.026 251.032 291.45 251.536 291.994 251.904C292.538 252.272 293.186 252.456 293.938 252.456C294.642 252.456 295.266 252.272 295.81 251.904C296.354 251.536 296.778 251.032 297.082 250.392C297.386 249.736 297.538 248.992 297.538 248.16C297.554 247.344 297.418 246.616 297.13 245.976C296.842 245.32 296.418 244.808 295.858 244.44C295.314 244.072 294.674 243.888 293.938 243.888C293.186 243.888 292.538 244.072 291.994 244.44C291.45 244.792 291.026 245.296 290.722 245.952C290.434 246.592 290.29 247.328 290.29 248.16ZM317.664 246.528C317.536 245.712 317.168 245.064 316.56 244.584C315.952 244.104 315.248 243.864 314.448 243.864C313.264 243.864 312.344 244.288 311.688 245.136C311.032 245.968 310.704 247.136 310.704 248.64C310.704 250.144 311.032 251.32 311.688 252.168C312.344 253 313.264 253.416 314.448 253.416C315.28 253.416 316 253.16 316.608 252.648C317.232 252.12 317.616 251.408 317.76 250.512L319.848 250.632C319.72 251.576 319.4 252.4 318.888 253.104C318.376 253.808 317.728 254.352 316.944 254.736C316.176 255.104 315.344 255.288 314.448 255.288C313.28 255.288 312.256 255.016 311.376 254.472C310.512 253.928 309.84 253.16 309.36 252.168C308.88 251.16 308.64 249.984 308.64 248.64C308.64 247.296 308.88 246.128 309.36 245.136C309.84 244.128 310.512 243.352 311.376 242.808C312.256 242.264 313.28 241.992 314.448 241.992C315.312 241.992 316.128 242.176 316.896 242.544C317.664 242.896 318.296 243.408 318.792 244.08C319.304 244.752 319.616 245.528 319.728 246.408L317.664 246.528ZM324.81 237.96V252.456C324.81 252.728 324.874 252.928 325.002 253.056C325.146 253.184 325.354 253.248 325.626 253.248H326.706V255H325.338C324.586 255 323.978 254.776 323.514 254.328C323.066 253.864 322.842 253.272 322.842 252.552V237.96H324.81ZM329.012 246.024C329.268 244.792 329.852 243.816 330.764 243.096C331.692 242.36 332.836 241.992 334.196 241.992C335.844 241.992 337.108 242.456 337.988 243.384C338.868 244.296 339.308 245.608 339.308 247.32V252.432C339.308 252.704 339.372 252.912 339.5 253.056C339.628 253.184 339.828 253.248 340.1 253.248H340.604V255H339.764H339.644C339.196 254.984 338.804 254.92 338.468 254.808C338.132 254.68 337.86 254.472 337.652 254.184C337.444 253.88 337.348 253.488 337.364 253.008C337.06 253.648 336.556 254.192 335.852 254.64C335.148 255.072 334.316 255.288 333.356 255.288C332.044 255.288 330.956 254.96 330.092 254.304C329.228 253.648 328.796 252.776 328.796 251.688C328.796 250.856 328.988 250.192 329.372 249.696C329.756 249.2 330.284 248.824 330.956 248.568C331.628 248.296 332.5 248.056 333.572 247.848L337.316 247.128C337.316 246.024 337.052 245.208 336.524 244.68C336.012 244.136 335.236 243.864 334.196 243.864C333.396 243.864 332.724 244.064 332.18 244.464C331.652 244.864 331.292 245.44 331.1 246.192L329.012 246.024ZM330.86 251.688C330.86 252.232 331.092 252.68 331.556 253.032C332.036 253.384 332.724 253.552 333.62 253.536C334.34 253.536 334.98 253.368 335.54 253.032C336.116 252.696 336.564 252.2 336.884 251.544C337.22 250.872 337.388 250.056 337.388 249.096L337.364 248.88L334.34 249.408L333.86 249.48C333.156 249.608 332.604 249.736 332.204 249.864C331.804 249.976 331.476 250.176 331.22 250.464C330.98 250.752 330.86 251.16 330.86 251.688ZM350.479 246.192C350.335 245.488 349.959 244.928 349.351 244.512C348.743 244.08 348.063 243.864 347.311 243.864C346.575 243.864 345.959 244.048 345.463 244.416C344.967 244.768 344.719 245.24 344.719 245.832C344.735 246.408 345.023 246.856 345.583 247.176C346.159 247.48 346.895 247.728 347.791 247.92C348.879 248.128 349.775 248.376 350.479 248.664C351.199 248.936 351.759 249.32 352.159 249.816C352.575 250.312 352.783 250.96 352.783 251.76C352.783 252.544 352.543 253.2 352.063 253.728C351.599 254.256 350.991 254.648 350.239 254.904C349.487 255.16 348.687 255.288 347.839 255.288C346.831 255.288 345.919 255.112 345.103 254.76C344.303 254.408 343.655 253.912 343.159 253.272C342.679 252.616 342.407 251.864 342.343 251.016L344.407 250.872C344.503 251.384 344.695 251.832 344.983 252.216C345.271 252.6 345.655 252.896 346.135 253.104C346.631 253.312 347.199 253.416 347.839 253.416C348.607 253.416 349.279 253.28 349.855 253.008C350.431 252.72 350.719 252.272 350.719 251.664C350.719 251.232 350.591 250.896 350.335 250.656C350.095 250.416 349.799 250.24 349.447 250.128C349.111 250 348.639 249.872 348.031 249.744C347.887 249.712 347.687 249.664 347.431 249.6C346.439 249.376 345.615 249.136 344.959 248.88C344.303 248.624 343.759 248.264 343.327 247.8C342.895 247.32 342.679 246.704 342.679 245.952C342.663 245.152 342.855 244.456 343.255 243.864C343.671 243.272 344.247 242.816 344.983 242.496C345.719 242.16 346.567 241.992 347.527 241.992C348.807 241.992 349.911 242.368 350.839 243.12C351.767 243.856 352.335 244.832 352.543 246.048L350.479 246.192ZM363.182 246.192C363.038 245.488 362.662 244.928 362.054 244.512C361.446 244.08 360.766 243.864 360.014 243.864C359.278 243.864 358.662 244.048 358.166 244.416C357.67 244.768 357.422 245.24 357.422 245.832C357.438 246.408 357.726 246.856 358.286 247.176C358.862 247.48 359.598 247.728 360.494 247.92C361.582 248.128 362.478 248.376 363.182 248.664C363.902 248.936 364.462 249.32 364.862 249.816C365.278 250.312 365.486 250.96 365.486 251.76C365.486 252.544 365.246 253.2 364.766 253.728C364.302 254.256 363.694 254.648 362.942 254.904C362.19 255.16 361.39 255.288 360.542 255.288C359.534 255.288 358.622 255.112 357.806 254.76C357.006 254.408 356.358 253.912 355.862 253.272C355.382 252.616 355.11 251.864 355.046 251.016L357.11 250.872C357.206 251.384 357.398 251.832 357.686 252.216C357.974 252.6 358.358 252.896 358.838 253.104C359.334 253.312 359.902 253.416 360.542 253.416C361.31 253.416 361.982 253.28 362.558 253.008C363.134 252.72 363.422 252.272 363.422 251.664C363.422 251.232 363.294 250.896 363.038 250.656C362.798 250.416 362.502 250.24 362.15 250.128C361.814 250 361.342 249.872 360.734 249.744C360.59 249.712 360.39 249.664 360.134 249.6C359.142 249.376 358.318 249.136 357.662 248.88C357.006 248.624 356.462 248.264 356.03 247.8C355.598 247.32 355.382 246.704 355.382 245.952C355.366 245.152 355.558 244.456 355.958 243.864C356.374 243.272 356.95 242.816 357.686 242.496C358.422 242.16 359.27 241.992 360.23 241.992C361.51 241.992 362.614 242.368 363.542 243.12C364.47 243.856 365.038 244.832 365.246 246.048L363.182 246.192Z" fill="black"/>
<path d="M150.161 303.96V305.928H140.489L141.497 304.92V312.744L140.489 311.688H149.729V313.632H140.489L141.497 312.6V321H139.481V303.96H150.161ZM155.414 308.28V321H153.446V308.28H155.414ZM155.462 304.008V306.288H153.398V304.008H155.462ZM160.942 308.28L161.038 311.544L160.774 311.28C160.982 310.192 161.462 309.376 162.214 308.832C162.966 308.272 163.87 307.992 164.926 307.992C166.318 307.992 167.382 308.44 168.118 309.336C168.854 310.232 169.222 311.392 169.222 312.816V321H167.254V313.392C167.254 312.592 167.158 311.928 166.966 311.4C166.774 310.856 166.478 310.448 166.078 310.176C165.678 309.888 165.158 309.744 164.518 309.744C163.462 309.744 162.63 310.064 162.022 310.704C161.414 311.328 161.11 312.224 161.11 313.392V321H159.142V308.28H160.942ZM181.206 303.96H183.174V321H181.398L181.326 319.128C180.958 319.816 180.43 320.352 179.742 320.736C179.054 321.104 178.23 321.288 177.27 321.288C176.102 321.288 175.11 320.992 174.294 320.4C173.494 319.792 172.894 318.984 172.494 317.976C172.094 316.968 171.894 315.856 171.894 314.64C171.894 313.424 172.094 312.32 172.494 311.328C172.894 310.32 173.494 309.512 174.294 308.904C175.11 308.296 176.102 307.992 177.27 307.992C178.198 307.992 178.99 308.168 179.646 308.52C180.318 308.872 180.838 309.368 181.206 310.008V303.96ZM180.966 316.992C181.238 316.272 181.374 315.488 181.374 314.64C181.374 313.76 181.238 312.96 180.966 312.24C180.71 311.504 180.302 310.912 179.742 310.464C179.198 310.016 178.51 309.792 177.678 309.792C176.43 309.792 175.494 310.256 174.87 311.184C174.262 312.096 173.958 313.248 173.958 314.64C173.958 315.984 174.262 317.12 174.87 318.048C175.494 318.96 176.43 319.416 177.678 319.416C178.51 319.416 179.198 319.192 179.742 318.744C180.302 318.296 180.71 317.712 180.966 316.992ZM198.139 321.288C196.971 321.288 195.947 321.016 195.067 320.472C194.203 319.928 193.531 319.16 193.051 318.168C192.571 317.16 192.331 315.984 192.331 314.64C192.331 313.296 192.571 312.128 193.051 311.136C193.531 310.128 194.203 309.352 195.067 308.808C195.947 308.264 196.971 307.992 198.139 307.992C199.307 307.992 200.323 308.264 201.187 308.808C202.067 309.352 202.747 310.128 203.227 311.136C203.707 312.128 203.947 313.296 203.947 314.64C203.947 315.984 203.707 317.16 203.227 318.168C202.747 319.16 202.067 319.928 201.187 320.472C200.323 321.016 199.307 321.288 198.139 321.288ZM198.139 319.416C199.323 319.416 200.243 319 200.899 318.168C201.555 317.32 201.883 316.144 201.883 314.64C201.883 313.136 201.555 311.968 200.899 311.136C200.243 310.288 199.323 309.864 198.139 309.864C196.955 309.864 196.035 310.288 195.379 311.136C194.723 311.968 194.395 313.136 194.395 314.64C194.395 316.144 194.723 317.32 195.379 318.168C196.035 319 196.955 319.416 198.139 319.416ZM208.729 308.28L208.825 311.64L208.633 311.448C208.793 310.344 209.129 309.544 209.641 309.048C210.153 308.536 210.889 308.28 211.849 308.28H213.073V310.032H211.849C211.209 310.032 210.673 310.16 210.241 310.416C209.809 310.672 209.489 311.056 209.281 311.568C209.073 312.064 208.969 312.68 208.969 313.416V321H207.001V308.28H208.729ZM221.539 312.024C221.795 310.792 222.379 309.816 223.291 309.096C224.219 308.36 225.363 307.992 226.723 307.992C228.371 307.992 229.635 308.456 230.515 309.384C231.395 310.296 231.835 311.608 231.835 313.32V318.432C231.835 318.704 231.899 318.912 232.027 319.056C232.155 319.184 232.355 319.248 232.627 319.248H233.131V321H232.291H232.171C231.723 320.984 231.331 320.92 230.995 320.808C230.659 320.68 230.387 320.472 230.179 320.184C229.971 319.88 229.875 319.488 229.891 319.008C229.587 319.648 229.083 320.192 228.379 320.64C227.675 321.072 226.843 321.288 225.883 321.288C224.571 321.288 223.483 320.96 222.619 320.304C221.755 319.648 221.323 318.776 221.323 317.688C221.323 316.856 221.515 316.192 221.899 315.696C222.283 315.2 222.811 314.824 223.483 314.568C224.155 314.296 225.027 314.056 226.099 313.848L229.843 313.128C229.843 312.024 229.579 311.208 229.051 310.68C228.539 310.136 227.763 309.864 226.723 309.864C225.923 309.864 225.251 310.064 224.707 310.464C224.179 310.864 223.819 311.44 223.627 312.192L221.539 312.024ZM223.387 317.688C223.387 318.232 223.619 318.68 224.083 319.032C224.563 319.384 225.251 319.552 226.147 319.536C226.867 319.536 227.507 319.368 228.067 319.032C228.643 318.696 229.091 318.2 229.411 317.544C229.747 316.872 229.915 316.056 229.915 315.096L229.891 314.88L226.867 315.408L226.387 315.48C225.683 315.608 225.131 315.736 224.731 315.864C224.331 315.976 224.003 316.176 223.747 316.464C223.507 316.752 223.387 317.16 223.387 317.688ZM244.182 303.96H246.15V321H244.374L244.302 319.128C243.934 319.816 243.406 320.352 242.718 320.736C242.03 321.104 241.206 321.288 240.246 321.288C239.078 321.288 238.086 320.992 237.27 320.4C236.47 319.792 235.87 318.984 235.47 317.976C235.07 316.968 234.87 315.856 234.87 314.64C234.87 313.424 235.07 312.32 235.47 311.328C235.87 310.32 236.47 309.512 237.27 308.904C238.086 308.296 239.078 307.992 240.246 307.992C241.174 307.992 241.966 308.168 242.622 308.52C243.294 308.872 243.814 309.368 244.182 310.008V303.96ZM243.942 316.992C244.214 316.272 244.35 315.488 244.35 314.64C244.35 313.76 244.214 312.96 243.942 312.24C243.686 311.504 243.278 310.912 242.718 310.464C242.174 310.016 241.486 309.792 240.654 309.792C239.406 309.792 238.47 310.256 237.846 311.184C237.238 312.096 236.934 313.248 236.934 314.64C236.934 315.984 237.238 317.12 237.846 318.048C238.47 318.96 239.406 319.416 240.654 319.416C241.486 319.416 242.174 319.192 242.718 318.744C243.278 318.296 243.686 317.712 243.942 316.992ZM258.62 303.96H260.588V321H258.812L258.74 319.128C258.372 319.816 257.844 320.352 257.156 320.736C256.468 321.104 255.644 321.288 254.684 321.288C253.516 321.288 252.524 320.992 251.708 320.4C250.908 319.792 250.308 318.984 249.908 317.976C249.508 316.968 249.308 315.856 249.308 314.64C249.308 313.424 249.508 312.32 249.908 311.328C250.308 310.32 250.908 309.512 251.708 308.904C252.524 308.296 253.516 307.992 254.684 307.992C255.612 307.992 256.404 308.168 257.06 308.52C257.732 308.872 258.252 309.368 258.62 310.008V303.96ZM258.38 316.992C258.652 316.272 258.788 315.488 258.788 314.64C258.788 313.76 258.652 312.96 258.38 312.24C258.124 311.504 257.716 310.912 257.156 310.464C256.612 310.016 255.924 309.792 255.092 309.792C253.844 309.792 252.908 310.256 252.284 311.184C251.676 312.096 251.372 313.248 251.372 314.64C251.372 315.984 251.676 317.12 252.284 318.048C252.908 318.96 253.844 319.416 255.092 319.416C255.924 319.416 256.612 319.192 257.156 318.744C257.716 318.296 258.124 317.712 258.38 316.992ZM278.769 312.528C278.641 311.712 278.273 311.064 277.665 310.584C277.057 310.104 276.353 309.864 275.553 309.864C274.369 309.864 273.449 310.288 272.793 311.136C272.137 311.968 271.809 313.136 271.809 314.64C271.809 316.144 272.137 317.32 272.793 318.168C273.449 319 274.369 319.416 275.553 319.416C276.385 319.416 277.105 319.16 277.713 318.648C278.337 318.12 278.721 317.408 278.865 316.512L280.953 316.632C280.825 317.576 280.505 318.4 279.993 319.104C279.481 319.808 278.833 320.352 278.049 320.736C277.281 321.104 276.449 321.288 275.553 321.288C274.385 321.288 273.361 321.016 272.481 320.472C271.617 319.928 270.945 319.16 270.465 318.168C269.985 317.16 269.745 315.984 269.745 314.64C269.745 313.296 269.985 312.128 270.465 311.136C270.945 310.128 271.617 309.352 272.481 308.808C273.361 308.264 274.385 307.992 275.553 307.992C276.417 307.992 277.233 308.176 278.001 308.544C278.769 308.896 279.401 309.408 279.897 310.08C280.409 310.752 280.721 311.528 280.833 312.408L278.769 312.528ZM285.915 303.96V318.456C285.915 318.728 285.979 318.928 286.107 319.056C286.251 319.184 286.459 319.248 286.731 319.248H287.811V321H286.443C285.691 321 285.083 320.776 284.619 320.328C284.171 319.864 283.947 319.272 283.947 318.552V303.96H285.915ZM290.117 312.024C290.373 310.792 290.957 309.816 291.869 309.096C292.797 308.36 293.941 307.992 295.301 307.992C296.949 307.992 298.213 308.456 299.093 309.384C299.973 310.296 300.413 311.608 300.413 313.32V318.432C300.413 318.704 300.477 318.912 300.605 319.056C300.733 319.184 300.933 319.248 301.205 319.248H301.709V321H300.869H300.749C300.301 320.984 299.909 320.92 299.573 320.808C299.237 320.68 298.965 320.472 298.757 320.184C298.549 319.88 298.453 319.488 298.469 319.008C298.165 319.648 297.661 320.192 296.957 320.64C296.253 321.072 295.421 321.288 294.461 321.288C293.149 321.288 292.061 320.96 291.197 320.304C290.333 319.648 289.901 318.776 289.901 317.688C289.901 316.856 290.093 316.192 290.477 315.696C290.861 315.2 291.389 314.824 292.061 314.568C292.733 314.296 293.605 314.056 294.677 313.848L298.421 313.128C298.421 312.024 298.157 311.208 297.629 310.68C297.117 310.136 296.341 309.864 295.301 309.864C294.501 309.864 293.829 310.064 293.285 310.464C292.757 310.864 292.397 311.44 292.205 312.192L290.117 312.024ZM291.965 317.688C291.965 318.232 292.197 318.68 292.661 319.032C293.141 319.384 293.829 319.552 294.725 319.536C295.445 319.536 296.085 319.368 296.645 319.032C297.221 318.696 297.669 318.2 297.989 317.544C298.325 316.872 298.493 316.056 298.493 315.096L298.469 314.88L295.445 315.408L294.965 315.48C294.261 315.608 293.709 315.736 293.309 315.864C292.909 315.976 292.581 316.176 292.325 316.464C292.085 316.752 291.965 317.16 291.965 317.688ZM311.584 312.192C311.44 311.488 311.064 310.928 310.456 310.512C309.848 310.08 309.168 309.864 308.416 309.864C307.68 309.864 307.064 310.048 306.568 310.416C306.072 310.768 305.824 311.24 305.824 311.832C305.84 312.408 306.128 312.856 306.688 313.176C307.264 313.48 308 313.728 308.896 313.92C309.984 314.128 310.88 314.376 311.584 314.664C312.304 314.936 312.864 315.32 313.264 315.816C313.68 316.312 313.888 316.96 313.888 317.76C313.888 318.544 313.648 319.2 313.168 319.728C312.704 320.256 312.096 320.648 311.344 320.904C310.592 321.16 309.792 321.288 308.944 321.288C307.936 321.288 307.024 321.112 306.208 320.76C305.408 320.408 304.76 319.912 304.264 319.272C303.784 318.616 303.512 317.864 303.448 317.016L305.512 316.872C305.608 317.384 305.8 317.832 306.088 318.216C306.376 318.6 306.76 318.896 307.24 319.104C307.736 319.312 308.304 319.416 308.944 319.416C309.712 319.416 310.384 319.28 310.96 319.008C311.536 318.72 311.824 318.272 311.824 317.664C311.824 317.232 311.696 316.896 311.44 316.656C311.2 316.416 310.904 316.24 310.552 316.128C310.216 316 309.744 315.872 309.136 315.744C308.992 315.712 308.792 315.664 308.536 315.6C307.544 315.376 306.72 315.136 306.064 314.88C305.408 314.624 304.864 314.264 304.432 313.8C304 313.32 303.784 312.704 303.784 311.952C303.768 311.152 303.96 310.456 304.36 309.864C304.776 309.272 305.352 308.816 306.088 308.496C306.824 308.16 307.672 307.992 308.632 307.992C309.912 307.992 311.016 308.368 311.944 309.12C312.872 309.856 313.44 310.832 313.648 312.048L311.584 312.192ZM324.287 312.192C324.143 311.488 323.767 310.928 323.159 310.512C322.551 310.08 321.871 309.864 321.119 309.864C320.383 309.864 319.767 310.048 319.271 310.416C318.775 310.768 318.527 311.24 318.527 311.832C318.543 312.408 318.831 312.856 319.391 313.176C319.967 313.48 320.703 313.728 321.599 313.92C322.687 314.128 323.583 314.376 324.287 314.664C325.007 314.936 325.567 315.32 325.967 315.816C326.383 316.312 326.591 316.96 326.591 317.76C326.591 318.544 326.351 319.2 325.871 319.728C325.407 320.256 324.799 320.648 324.047 320.904C323.295 321.16 322.495 321.288 321.647 321.288C320.639 321.288 319.727 321.112 318.911 320.76C318.111 320.408 317.463 319.912 316.967 319.272C316.487 318.616 316.215 317.864 316.151 317.016L318.215 316.872C318.311 317.384 318.503 317.832 318.791 318.216C319.079 318.6 319.463 318.896 319.943 319.104C320.439 319.312 321.007 319.416 321.647 319.416C322.415 319.416 323.087 319.28 323.663 319.008C324.239 318.72 324.527 318.272 324.527 317.664C324.527 317.232 324.399 316.896 324.143 316.656C323.903 316.416 323.607 316.24 323.255 316.128C322.919 316 322.447 315.872 321.839 315.744C321.695 315.712 321.495 315.664 321.239 315.6C320.247 315.376 319.423 315.136 318.767 314.88C318.111 314.624 317.567 314.264 317.135 313.8C316.703 313.32 316.487 312.704 316.487 311.952C316.471 311.152 316.663 310.456 317.063 309.864C317.479 309.272 318.055 308.816 318.791 308.496C319.527 308.16 320.375 307.992 321.335 307.992C322.615 307.992 323.719 308.368 324.647 309.12C325.575 309.856 326.143 310.832 326.351 312.048L324.287 312.192Z" fill="black"/>
<path d="M166.052 387.384C164.484 387.384 163.116 387.024 161.948 386.304C160.796 385.584 159.908 384.56 159.284 383.232C158.66 381.888 158.348 380.312 158.348 378.504C158.348 376.68 158.66 375.096 159.284 373.752C159.908 372.408 160.796 371.376 161.948 370.656C163.116 369.936 164.484 369.576 166.052 369.576C167.62 369.576 168.98 369.936 170.132 370.656C171.3 371.376 172.196 372.408 172.82 373.752C173.444 375.096 173.756 376.68 173.756 378.504C173.756 380.312 173.444 381.888 172.82 383.232C172.196 384.56 171.3 385.584 170.132 386.304C168.98 387.024 167.62 387.384 166.052 387.384ZM166.052 385.416C167.252 385.416 168.268 385.152 169.1 384.624C169.932 384.08 170.564 383.296 170.996 382.272C171.428 381.232 171.644 379.976 171.644 378.504C171.644 377.032 171.428 375.776 170.996 374.736C170.564 373.696 169.932 372.904 169.1 372.36C168.268 371.816 167.252 371.544 166.052 371.544C164.852 371.544 163.836 371.816 163.004 372.36C162.172 372.904 161.54 373.696 161.108 374.736C160.676 375.776 160.46 377.032 160.46 378.504C160.46 379.976 160.676 381.232 161.108 382.272C161.54 383.296 162.172 384.08 163.004 384.624C163.836 385.152 164.852 385.416 166.052 385.416ZM176.509 374.28H178.285L178.381 377.064L178.165 376.68C178.485 375.816 178.997 375.152 179.701 374.688C180.421 374.224 181.285 373.992 182.293 373.992C183.509 373.992 184.525 374.296 185.341 374.904C186.157 375.496 186.765 376.296 187.165 377.304C187.581 378.296 187.789 379.408 187.789 380.64C187.789 381.856 187.581 382.968 187.165 383.976C186.765 384.968 186.157 385.768 185.341 386.376C184.525 386.984 183.509 387.288 182.293 387.288C181.621 387.288 181.005 387.184 180.445 386.976C179.901 386.752 179.437 386.44 179.053 386.04C178.669 385.64 178.389 385.144 178.213 384.552L178.477 384.216V390.6H176.509V374.28ZM178.261 380.64C178.261 381.488 178.389 382.272 178.645 382.992C178.917 383.712 179.333 384.296 179.893 384.744C180.453 385.176 181.141 385.392 181.957 385.392C183.189 385.392 184.117 384.936 184.741 384.024C185.365 383.112 185.677 381.984 185.677 380.64C185.677 379.296 185.365 378.168 184.741 377.256C184.117 376.328 183.189 375.864 181.957 375.864C181.141 375.864 180.453 376.088 179.893 376.536C179.333 376.984 178.917 377.568 178.645 378.288C178.389 379.008 178.261 379.792 178.261 380.64ZM190.034 380.64C190.034 379.296 190.274 378.128 190.754 377.136C191.234 376.128 191.906 375.352 192.77 374.808C193.65 374.264 194.674 373.992 195.842 373.992C196.834 373.992 197.73 374.216 198.53 374.664C199.346 375.112 200.002 375.816 200.498 376.776C201.01 377.736 201.298 378.936 201.362 380.376L201.386 381.264H192.122C192.218 382.576 192.586 383.6 193.226 384.336C193.882 385.056 194.754 385.416 195.842 385.416C196.546 385.416 197.186 385.224 197.762 384.84C198.338 384.456 198.77 383.928 199.058 383.256L201.17 383.4C200.802 384.584 200.13 385.528 199.154 386.232C198.178 386.936 197.074 387.288 195.842 387.288C194.674 387.288 193.65 387.016 192.77 386.472C191.906 385.928 191.234 385.16 190.754 384.168C190.274 383.16 190.034 381.984 190.034 380.64ZM199.226 379.512C199.05 378.248 198.658 377.328 198.05 376.752C197.442 376.16 196.706 375.864 195.842 375.864C194.818 375.864 193.994 376.184 193.37 376.824C192.746 377.448 192.346 378.344 192.17 379.512H199.226ZM206.223 374.28L206.319 377.544L206.055 377.28C206.263 376.192 206.743 375.376 207.495 374.832C208.247 374.272 209.151 373.992 210.207 373.992C211.599 373.992 212.663 374.44 213.399 375.336C214.135 376.232 214.503 377.392 214.503 378.816V387H212.535V379.392C212.535 378.592 212.439 377.928 212.247 377.4C212.055 376.856 211.759 376.448 211.359 376.176C210.959 375.888 210.439 375.744 209.799 375.744C208.743 375.744 207.911 376.064 207.303 376.704C206.695 377.328 206.391 378.224 206.391 379.392V387H204.423V374.28H206.223ZM226.07 384.432V387H223.526V384.432H226.07ZM237.355 378.528C237.227 377.712 236.859 377.064 236.251 376.584C235.643 376.104 234.939 375.864 234.139 375.864C232.955 375.864 232.035 376.288 231.379 377.136C230.723 377.968 230.395 379.136 230.395 380.64C230.395 382.144 230.723 383.32 231.379 384.168C232.035 385 232.955 385.416 234.139 385.416C234.971 385.416 235.691 385.16 236.299 384.648C236.923 384.12 237.307 383.408 237.451 382.512L239.539 382.632C239.411 383.576 239.091 384.4 238.579 385.104C238.067 385.808 237.419 386.352 236.635 386.736C235.867 387.104 235.035 387.288 234.139 387.288C232.971 387.288 231.947 387.016 231.067 386.472C230.203 385.928 229.531 385.16 229.051 384.168C228.571 383.16 228.331 381.984 228.331 380.64C228.331 379.296 228.571 378.128 229.051 377.136C229.531 376.128 230.203 375.352 231.067 374.808C231.947 374.264 232.971 373.992 234.139 373.992C235.003 373.992 235.819 374.176 236.587 374.544C237.355 374.896 237.987 375.408 238.483 376.08C238.995 376.752 239.307 377.528 239.419 378.408L237.355 378.528ZM249.709 378.192C249.565 377.488 249.189 376.928 248.581 376.512C247.973 376.08 247.293 375.864 246.541 375.864C245.805 375.864 245.189 376.048 244.693 376.416C244.197 376.768 243.949 377.24 243.949 377.832C243.965 378.408 244.253 378.856 244.813 379.176C245.389 379.48 246.125 379.728 247.021 379.92C248.109 380.128 249.005 380.376 249.709 380.664C250.429 380.936 250.989 381.32 251.389 381.816C251.805 382.312 252.013 382.96 252.013 383.76C252.013 384.544 251.773 385.2 251.293 385.728C250.829 386.256 250.221 386.648 249.469 386.904C248.717 387.16 247.917 387.288 247.069 387.288C246.061 387.288 245.149 387.112 244.333 386.76C243.533 386.408 242.885 385.912 242.389 385.272C241.909 384.616 241.637 383.864 241.573 383.016L243.637 382.872C243.733 383.384 243.925 383.832 244.213 384.216C244.501 384.6 244.885 384.896 245.365 385.104C245.861 385.312 246.429 385.416 247.069 385.416C247.837 385.416 248.509 385.28 249.085 385.008C249.661 384.72 249.949 384.272 249.949 383.664C249.949 383.232 249.821 382.896 249.565 382.656C249.325 382.416 249.029 382.24 248.677 382.128C248.341 382 247.869 381.872 247.261 381.744C247.117 381.712 246.917 381.664 246.661 381.6C245.669 381.376 244.845 381.136 244.189 380.88C243.533 380.624 242.989 380.264 242.557 379.8C242.125 379.32 241.909 378.704 241.909 377.952C241.893 377.152 242.085 376.456 242.485 375.864C242.901 375.272 243.477 374.816 244.213 374.496C244.949 374.16 245.797 373.992 246.757 373.992C248.037 373.992 249.141 374.368 250.069 375.12C250.997 375.856 251.565 376.832 251.773 378.048L249.709 378.192ZM262.412 378.192C262.268 377.488 261.892 376.928 261.284 376.512C260.676 376.08 259.996 375.864 259.244 375.864C258.508 375.864 257.892 376.048 257.396 376.416C256.9 376.768 256.652 377.24 256.652 377.832C256.668 378.408 256.956 378.856 257.516 379.176C258.092 379.48 258.828 379.728 259.724 379.92C260.812 380.128 261.708 380.376 262.412 380.664C263.132 380.936 263.692 381.32 264.092 381.816C264.508 382.312 264.716 382.96 264.716 383.76C264.716 384.544 264.476 385.2 263.996 385.728C263.532 386.256 262.924 386.648 262.172 386.904C261.42 387.16 260.62 387.288 259.772 387.288C258.764 387.288 257.852 387.112 257.036 386.76C256.236 386.408 255.588 385.912 255.092 385.272C254.612 384.616 254.34 383.864 254.276 383.016L256.34 382.872C256.436 383.384 256.628 383.832 256.916 384.216C257.204 384.6 257.588 384.896 258.068 385.104C258.564 385.312 259.132 385.416 259.772 385.416C260.54 385.416 261.212 385.28 261.788 385.008C262.364 384.72 262.652 384.272 262.652 383.664C262.652 383.232 262.524 382.896 262.268 382.656C262.028 382.416 261.732 382.24 261.38 382.128C261.044 382 260.572 381.872 259.964 381.744C259.82 381.712 259.62 381.664 259.364 381.6C258.372 381.376 257.548 381.136 256.892 380.88C256.236 380.624 255.692 380.264 255.26 379.8C254.828 379.32 254.612 378.704 254.612 377.952C254.596 377.152 254.788 376.456 255.188 375.864C255.604 375.272 256.18 374.816 256.916 374.496C257.652 374.16 258.5 373.992 259.46 373.992C260.74 373.992 261.844 374.368 262.772 375.12C263.7 375.856 264.268 376.832 264.476 378.048L262.412 378.192ZM275.14 373.44C275.14 372.352 275.42 371.504 275.98 370.896C276.556 370.272 277.412 369.96 278.548 369.96H280.468V371.712H278.524C278.108 371.712 277.764 371.864 277.492 372.168C277.236 372.472 277.108 372.888 277.108 373.416V387H275.14V373.44ZM273.412 374.28H280.324V376.032H273.412V374.28ZM285.484 374.28V387H283.516V374.28H285.484ZM285.532 370.008V372.288H283.468V370.008H285.532ZM291.611 369.96V384.456C291.611 384.728 291.675 384.928 291.803 385.056C291.947 385.184 292.155 385.248 292.427 385.248H293.507V387H292.139C291.387 387 290.779 386.776 290.315 386.328C289.867 385.864 289.643 385.272 289.643 384.552V369.96H291.611ZM295.362 380.64C295.362 379.296 295.602 378.128 296.082 377.136C296.562 376.128 297.234 375.352 298.098 374.808C298.978 374.264 300.002 373.992 301.17 373.992C302.162 373.992 303.058 374.216 303.858 374.664C304.674 375.112 305.33 375.816 305.826 376.776C306.338 377.736 306.626 378.936 306.69 380.376L306.714 381.264H297.45C297.546 382.576 297.914 383.6 298.554 384.336C299.21 385.056 300.082 385.416 301.17 385.416C301.874 385.416 302.514 385.224 303.09 384.84C303.666 384.456 304.098 383.928 304.386 383.256L306.498 383.4C306.13 384.584 305.458 385.528 304.482 386.232C303.506 386.936 302.402 387.288 301.17 387.288C300.002 387.288 298.978 387.016 298.098 386.472C297.234 385.928 296.562 385.16 296.082 384.168C295.602 383.16 295.362 381.984 295.362 380.64ZM304.554 379.512C304.378 378.248 303.986 377.328 303.378 376.752C302.77 376.16 302.034 375.864 301.17 375.864C300.146 375.864 299.322 376.184 298.698 376.824C298.074 377.448 297.674 378.344 297.498 379.512H304.554Z" fill="black"/>
<path d="M186.067 435.96H188.755L194.923 453H192.715L191.011 448.128H183.811L182.107 453H179.899L186.067 435.96ZM190.315 446.16L187.411 437.736L184.507 446.16H190.315ZM205.514 435.96H207.482V453H205.706L205.634 451.128C205.266 451.816 204.738 452.352 204.05 452.736C203.362 453.104 202.538 453.288 201.578 453.288C200.41 453.288 199.418 452.992 198.602 452.4C197.802 451.792 197.202 450.984 196.802 449.976C196.402 448.968 196.202 447.856 196.202 446.64C196.202 445.424 196.402 444.32 196.802 443.328C197.202 442.32 197.802 441.512 198.602 440.904C199.418 440.296 200.41 439.992 201.578 439.992C202.506 439.992 203.298 440.168 203.954 440.52C204.626 440.872 205.146 441.368 205.514 442.008V435.96ZM205.274 448.992C205.546 448.272 205.682 447.488 205.682 446.64C205.682 445.76 205.546 444.96 205.274 444.24C205.018 443.504 204.61 442.912 204.05 442.464C203.506 442.016 202.818 441.792 201.986 441.792C200.738 441.792 199.802 442.256 199.178 443.184C198.57 444.096 198.266 445.248 198.266 446.64C198.266 447.984 198.57 449.12 199.178 450.048C199.802 450.96 200.738 451.416 201.986 451.416C202.818 451.416 203.506 451.192 204.05 450.744C204.61 450.296 205.018 449.712 205.274 448.992ZM219.952 435.96H221.92V453H220.144L220.072 451.128C219.704 451.816 219.176 452.352 218.488 452.736C217.8 453.104 216.976 453.288 216.016 453.288C214.848 453.288 213.856 452.992 213.04 452.4C212.24 451.792 211.64 450.984 211.24 449.976C210.84 448.968 210.64 447.856 210.64 446.64C210.64 445.424 210.84 444.32 211.24 443.328C211.64 442.32 212.24 441.512 213.04 440.904C213.856 440.296 214.848 439.992 216.016 439.992C216.944 439.992 217.736 440.168 218.392 440.52C219.064 440.872 219.584 441.368 219.952 442.008V435.96ZM219.712 448.992C219.984 448.272 220.12 447.488 220.12 446.64C220.12 445.76 219.984 444.96 219.712 444.24C219.456 443.504 219.048 442.912 218.488 442.464C217.944 442.016 217.256 441.792 216.424 441.792C215.176 441.792 214.24 442.256 213.616 443.184C213.008 444.096 212.704 445.248 212.704 446.64C212.704 447.984 213.008 449.12 213.616 450.048C214.24 450.96 215.176 451.416 216.424 451.416C217.256 451.416 217.944 451.192 218.488 450.744C219.048 450.296 219.456 449.712 219.712 448.992ZM239.213 444.192C239.069 443.488 238.693 442.928 238.085 442.512C237.477 442.08 236.797 441.864 236.045 441.864C235.309 441.864 234.693 442.048 234.197 442.416C233.701 442.768 233.453 443.24 233.453 443.832C233.469 444.408 233.757 444.856 234.317 445.176C234.893 445.48 235.629 445.728 236.525 445.92C237.613 446.128 238.509 446.376 239.213 446.664C239.933 446.936 240.493 447.32 240.893 447.816C241.309 448.312 241.517 448.96 241.517 449.76C241.517 450.544 241.277 451.2 240.797 451.728C240.333 452.256 239.725 452.648 238.973 452.904C238.221 453.16 237.421 453.288 236.573 453.288C235.565 453.288 234.653 453.112 233.837 452.76C233.037 452.408 232.389 451.912 231.893 451.272C231.413 450.616 231.141 449.864 231.077 449.016L233.141 448.872C233.237 449.384 233.429 449.832 233.717 450.216C234.005 450.6 234.389 450.896 234.869 451.104C235.365 451.312 235.933 451.416 236.573 451.416C237.341 451.416 238.013 451.28 238.589 451.008C239.165 450.72 239.453 450.272 239.453 449.664C239.453 449.232 239.325 448.896 239.069 448.656C238.829 448.416 238.533 448.24 238.181 448.128C237.845 448 237.373 447.872 236.765 447.744C236.621 447.712 236.421 447.664 236.165 447.6C235.173 447.376 234.349 447.136 233.693 446.88C233.037 446.624 232.493 446.264 232.061 445.8C231.629 445.32 231.413 444.704 231.413 443.952C231.397 443.152 231.589 442.456 231.989 441.864C232.405 441.272 232.981 440.816 233.717 440.496C234.453 440.16 235.301 439.992 236.261 439.992C237.541 439.992 238.645 440.368 239.573 441.12C240.501 441.856 241.069 442.832 241.277 444.048L239.213 444.192ZM247.206 437.4V449.64C247.206 450.184 247.334 450.592 247.59 450.864C247.862 451.12 248.246 451.248 248.742 451.248H250.566V453H248.742C247.622 453 246.758 452.712 246.15 452.136C245.542 451.544 245.238 450.712 245.238 449.64V437.4H247.206ZM250.59 440.28V442.032H243.366V440.28H250.59ZM254.128 440.28L257.992 450.888L261.712 440.28H263.8L258.64 454.608C258.4 455.296 258.048 455.8 257.584 456.12C257.12 456.44 256.528 456.6 255.808 456.6H254.296V454.848H255.616C255.936 454.848 256.2 454.776 256.408 454.632C256.616 454.488 256.776 454.256 256.888 453.936L257.344 452.76H256.672L252.016 440.28H254.128ZM268.388 435.96V450.456C268.388 450.728 268.452 450.928 268.58 451.056C268.724 451.184 268.932 451.248 269.204 451.248H270.284V453H268.916C268.164 453 267.556 452.776 267.092 452.328C266.644 451.864 266.42 451.272 266.42 450.552V435.96H268.388ZM272.14 446.64C272.14 445.296 272.38 444.128 272.86 443.136C273.34 442.128 274.012 441.352 274.876 440.808C275.756 440.264 276.78 439.992 277.948 439.992C278.94 439.992 279.836 440.216 280.636 440.664C281.452 441.112 282.108 441.816 282.604 442.776C283.116 443.736 283.404 444.936 283.468 446.376L283.492 447.264H274.228C274.324 448.576 274.692 449.6 275.332 450.336C275.988 451.056 276.86 451.416 277.948 451.416C278.652 451.416 279.292 451.224 279.868 450.84C280.444 450.456 280.876 449.928 281.164 449.256L283.276 449.4C282.908 450.584 282.236 451.528 281.26 452.232C280.284 452.936 279.18 453.288 277.948 453.288C276.78 453.288 275.756 453.016 274.876 452.472C274.012 451.928 273.34 451.16 272.86 450.168C272.38 449.16 272.14 447.984 272.14 446.64ZM281.332 445.512C281.156 444.248 280.764 443.328 280.156 442.752C279.548 442.16 278.812 441.864 277.948 441.864C276.924 441.864 276.1 442.184 275.476 442.824C274.852 443.448 274.452 444.344 274.276 445.512H281.332Z" fill="black"/>
<path d="M295 444.875L299.086 449L308 440" stroke="black" stroke-width="3"/>
<rect x="773.5" y="214.5" width="388" height="65" stroke="black"/>
<path d="M921.067 237.96H923.755L929.923 255H927.715L926.011 250.128H918.811L917.107 255H914.899L921.067 237.96ZM925.315 248.16L922.411 239.736L919.507 248.16H925.315ZM940.514 237.96H942.482V255H940.706L940.634 253.128C940.266 253.816 939.738 254.352 939.05 254.736C938.362 255.104 937.538 255.288 936.578 255.288C935.41 255.288 934.418 254.992 933.602 254.4C932.802 253.792 932.202 252.984 931.802 251.976C931.402 250.968 931.202 249.856 931.202 248.64C931.202 247.424 931.402 246.32 931.802 245.328C932.202 244.32 932.802 243.512 933.602 242.904C934.418 242.296 935.41 241.992 936.578 241.992C937.506 241.992 938.298 242.168 938.954 242.52C939.626 242.872 940.146 243.368 940.514 244.008V237.96ZM940.274 250.992C940.546 250.272 940.682 249.488 940.682 248.64C940.682 247.76 940.546 246.96 940.274 246.24C940.018 245.504 939.61 244.912 939.05 244.464C938.506 244.016 937.818 243.792 936.986 243.792C935.738 243.792 934.802 244.256 934.178 245.184C933.57 246.096 933.266 247.248 933.266 248.64C933.266 249.984 933.57 251.12 934.178 252.048C934.802 252.96 935.738 253.416 936.986 253.416C937.818 253.416 938.506 253.192 939.05 252.744C939.61 252.296 940.018 251.712 940.274 250.992ZM954.952 237.96H956.92V255H955.144L955.072 253.128C954.704 253.816 954.176 254.352 953.488 254.736C952.8 255.104 951.976 255.288 951.016 255.288C949.848 255.288 948.856 254.992 948.04 254.4C947.24 253.792 946.64 252.984 946.24 251.976C945.84 250.968 945.64 249.856 945.64 248.64C945.64 247.424 945.84 246.32 946.24 245.328C946.64 244.32 947.24 243.512 948.04 242.904C948.856 242.296 949.848 241.992 951.016 241.992C951.944 241.992 952.736 242.168 953.392 242.52C954.064 242.872 954.584 243.368 954.952 244.008V237.96ZM954.712 250.992C954.984 250.272 955.12 249.488 955.12 248.64C955.12 247.76 954.984 246.96 954.712 246.24C954.456 245.504 954.048 244.912 953.488 244.464C952.944 244.016 952.256 243.792 951.424 243.792C950.176 243.792 949.24 244.256 948.616 245.184C948.008 246.096 947.704 247.248 947.704 248.64C947.704 249.984 948.008 251.12 948.616 252.048C949.24 252.96 950.176 253.416 951.424 253.416C952.256 253.416 952.944 253.192 953.488 252.744C954.048 252.296 954.456 251.712 954.712 250.992ZM974.213 246.192C974.069 245.488 973.693 244.928 973.085 244.512C972.477 244.08 971.797 243.864 971.045 243.864C970.309 243.864 969.693 244.048 969.197 244.416C968.701 244.768 968.453 245.24 968.453 245.832C968.469 246.408 968.757 246.856 969.317 247.176C969.893 247.48 970.629 247.728 971.525 247.92C972.613 248.128 973.509 248.376 974.213 248.664C974.933 248.936 975.493 249.32 975.893 249.816C976.309 250.312 976.517 250.96 976.517 251.76C976.517 252.544 976.277 253.2 975.797 253.728C975.333 254.256 974.725 254.648 973.973 254.904C973.221 255.16 972.421 255.288 971.573 255.288C970.565 255.288 969.653 255.112 968.837 254.76C968.037 254.408 967.389 253.912 966.893 253.272C966.413 252.616 966.141 251.864 966.077 251.016L968.141 250.872C968.237 251.384 968.429 251.832 968.717 252.216C969.005 252.6 969.389 252.896 969.869 253.104C970.365 253.312 970.933 253.416 971.573 253.416C972.341 253.416 973.013 253.28 973.589 253.008C974.165 252.72 974.453 252.272 974.453 251.664C974.453 251.232 974.325 250.896 974.069 250.656C973.829 250.416 973.533 250.24 973.181 250.128C972.845 250 972.373 249.872 971.765 249.744C971.621 249.712 971.421 249.664 971.165 249.6C970.173 249.376 969.349 249.136 968.693 248.88C968.037 248.624 967.493 248.264 967.061 247.8C966.629 247.32 966.413 246.704 966.413 245.952C966.397 245.152 966.589 244.456 966.989 243.864C967.405 243.272 967.981 242.816 968.717 242.496C969.453 242.16 970.301 241.992 971.261 241.992C972.541 241.992 973.645 242.368 974.573 243.12C975.501 243.856 976.069 244.832 976.277 246.048L974.213 246.192ZM982.206 239.4V251.64C982.206 252.184 982.334 252.592 982.59 252.864C982.862 253.12 983.246 253.248 983.742 253.248H985.566V255H983.742C982.622 255 981.758 254.712 981.15 254.136C980.542 253.544 980.238 252.712 980.238 251.64V239.4H982.206ZM985.59 242.28V244.032H978.366V242.28H985.59ZM989.128 242.28L992.992 252.888L996.712 242.28H998.8L993.64 256.608C993.4 257.296 993.048 257.8 992.584 258.12C992.12 258.44 991.528 258.6 990.808 258.6H989.296V256.848H990.616C990.936 256.848 991.2 256.776 991.408 256.632C991.616 256.488 991.776 256.256 991.888 255.936L992.344 254.76H991.672L987.016 242.28H989.128ZM1003.39 237.96V252.456C1003.39 252.728 1003.45 252.928 1003.58 253.056C1003.72 253.184 1003.93 253.248 1004.2 253.248H1005.28V255H1003.92C1003.16 255 1002.56 254.776 1002.09 254.328C1001.64 253.864 1001.42 253.272 1001.42 252.552V237.96H1003.39ZM1007.14 248.64C1007.14 247.296 1007.38 246.128 1007.86 245.136C1008.34 244.128 1009.01 243.352 1009.88 242.808C1010.76 242.264 1011.78 241.992 1012.95 241.992C1013.94 241.992 1014.84 242.216 1015.64 242.664C1016.45 243.112 1017.11 243.816 1017.6 244.776C1018.12 245.736 1018.4 246.936 1018.47 248.376L1018.49 249.264H1009.23C1009.32 250.576 1009.69 251.6 1010.33 252.336C1010.99 253.056 1011.86 253.416 1012.95 253.416C1013.65 253.416 1014.29 253.224 1014.87 252.84C1015.44 252.456 1015.88 251.928 1016.16 251.256L1018.28 251.4C1017.91 252.584 1017.24 253.528 1016.26 254.232C1015.28 254.936 1014.18 255.288 1012.95 255.288C1011.78 255.288 1010.76 255.016 1009.88 254.472C1009.01 253.928 1008.34 253.16 1007.86 252.168C1007.38 251.16 1007.14 249.984 1007.14 248.64ZM1016.33 247.512C1016.16 246.248 1015.76 245.328 1015.16 244.752C1014.55 244.16 1013.81 243.864 1012.95 243.864C1011.92 243.864 1011.1 244.184 1010.48 244.824C1009.85 245.448 1009.45 246.344 1009.28 247.512H1016.33Z" fill="black"/>
<path d="M894.744 176.96L897.888 189.824L901.056 176.96H903.912L907.104 189.824L910.224 176.96H913.44L908.904 194H905.52L902.496 182.48L899.496 194H896.112L891.552 176.96H894.744ZM918.768 181.28V194H915.792V181.28H918.768ZM918.84 176.96V179.48H915.744V176.96H918.84ZM925.949 178.4V190.136C925.949 190.632 926.069 191.008 926.309 191.264C926.565 191.52 926.925 191.648 927.389 191.648H929.309V194H926.933C925.637 194 924.653 193.672 923.981 193.016C923.309 192.36 922.973 191.4 922.973 190.136V178.4H925.949ZM929.309 181.28V183.608H920.981V181.28H929.309ZM934.893 176.96V184.16L934.461 184.184C934.685 183.08 935.165 182.272 935.901 181.76C936.653 181.248 937.549 180.992 938.589 180.992C939.949 180.992 940.997 181.44 941.733 182.336C942.485 183.216 942.861 184.376 942.861 185.816V194H939.885V186.848C939.885 186.096 939.813 185.48 939.669 185C939.525 184.52 939.285 184.16 938.949 183.92C938.629 183.664 938.197 183.536 937.653 183.536C936.789 183.536 936.109 183.816 935.613 184.376C935.133 184.936 934.893 185.76 934.893 186.848V194H931.917V176.96H934.893ZM964.242 179.624H959.082V194H956.058V179.624H950.874V176.96H964.242V179.624ZM965.279 185.144C965.535 183.832 966.151 182.816 967.127 182.096C968.103 181.36 969.359 180.992 970.895 180.992C972.719 180.992 974.103 181.456 975.047 182.384C975.991 183.312 976.463 184.664 976.463 186.44V190.88C976.463 191.216 976.527 191.456 976.655 191.6C976.799 191.728 976.999 191.792 977.255 191.792H977.735V194L976.991 194.024H976.895C976.463 194.04 976.023 194.008 975.575 193.928C975.143 193.848 974.759 193.664 974.423 193.376C974.087 193.088 973.895 192.648 973.847 192.056C973.527 192.712 973.007 193.248 972.287 193.664C971.567 194.08 970.687 194.288 969.647 194.288C968.335 194.288 967.239 193.96 966.359 193.304C965.495 192.632 965.063 191.752 965.063 190.664C965.063 189.864 965.247 189.216 965.615 188.72C965.999 188.224 966.527 187.832 967.199 187.544C967.887 187.256 968.783 187.008 969.887 186.8L973.463 186.08C973.447 185.104 973.231 184.384 972.815 183.92C972.399 183.44 971.759 183.2 970.895 183.2C970.223 183.2 969.663 183.384 969.215 183.752C968.783 184.104 968.487 184.624 968.327 185.312L965.279 185.144ZM968.135 190.568C968.135 191.032 968.327 191.416 968.711 191.72C969.111 192.008 969.679 192.152 970.415 192.152C971.007 192.152 971.535 192.008 971.999 191.72C972.479 191.432 972.847 191 973.103 190.424C973.375 189.832 973.511 189.12 973.511 188.288V188.168L971.063 188.6L970.631 188.672C970.039 188.784 969.575 188.896 969.239 189.008C968.919 189.12 968.655 189.304 968.447 189.56C968.239 189.8 968.135 190.136 968.135 190.568ZM983.104 181.28V194H980.128V181.28H983.104ZM983.176 176.96V179.48H980.08V176.96H983.176ZM989.882 176.96V190.76C989.882 191.048 989.954 191.272 990.098 191.432C990.258 191.576 990.482 191.648 990.77 191.648H991.778V194H990.026C989.082 194 988.322 193.72 987.746 193.16C987.186 192.6 986.906 191.84 986.906 190.88V176.96H989.882ZM1005.92 190.592L1008.53 181.28H1011.46L1007.6 194H1004.48L1001.93 185.336L999.387 194H996.267L992.403 181.28H995.331L997.947 190.592L1000.61 181.28H1003.25L1005.92 190.592ZM1016.76 181.28V194H1013.78V181.28H1016.76ZM1016.83 176.96V179.48H1013.74V176.96H1016.83ZM1022.75 181.28L1022.9 184.808L1022.51 184.592C1022.71 183.36 1023.17 182.456 1023.91 181.88C1024.66 181.288 1025.58 180.992 1026.67 180.992C1028.06 180.992 1029.13 181.432 1029.88 182.312C1030.63 183.176 1031.01 184.344 1031.01 185.816V194H1028.03V186.752C1028.03 186 1027.96 185.384 1027.82 184.904C1027.67 184.424 1027.43 184.056 1027.1 183.8C1026.78 183.544 1026.35 183.416 1025.8 183.416C1024.94 183.416 1024.26 183.704 1023.76 184.28C1023.28 184.84 1023.04 185.664 1023.04 186.752V194H1020.07V181.28H1022.75ZM1042.58 176.96H1045.55V194H1042.74L1042.67 192.2C1042.3 192.872 1041.78 193.392 1041.11 193.76C1040.46 194.112 1039.67 194.288 1038.76 194.288C1037.59 194.288 1036.6 193.992 1035.78 193.4C1034.98 192.808 1034.38 192.008 1033.98 191C1033.58 189.992 1033.38 188.872 1033.38 187.64C1033.38 186.408 1033.58 185.288 1033.98 184.28C1034.38 183.272 1034.98 182.472 1035.78 181.88C1036.6 181.288 1037.59 180.992 1038.76 180.992C1039.64 180.992 1040.4 181.16 1041.04 181.496C1041.68 181.832 1042.19 182.328 1042.58 182.984V176.96ZM1042.43 189.728C1042.66 189.088 1042.77 188.392 1042.77 187.64C1042.77 186.84 1042.66 186.12 1042.43 185.48C1042.21 184.84 1041.86 184.328 1041.38 183.944C1040.9 183.544 1040.3 183.344 1039.6 183.344C1038.54 183.344 1037.75 183.752 1037.22 184.568C1036.7 185.384 1036.43 186.408 1036.43 187.64C1036.43 188.824 1036.7 189.824 1037.22 190.64C1037.77 191.44 1038.56 191.84 1039.6 191.84C1040.32 191.84 1040.91 191.648 1041.38 191.264C1041.86 190.88 1042.21 190.368 1042.43 189.728Z" fill="black"/>
<path d="M1037 247.875L1041.09 252L1050 243" stroke="black" stroke-width="3"/>
</svg>
