<svg width="64" height="64" viewBox="0 0 64 64" fill="none" xmlns="http://www.w3.org/2000/svg">
<rect width="64" height="64" rx="12" fill="white"/>
<path fill-rule="evenodd" clip-rule="evenodd" d="M30.1363 18.6528C30.0622 18.4737 30.0243 18.2818 30.0244 18.088C30.0243 17.8943 30.0624 17.7025 30.1364 17.5235C30.2106 17.3445 30.3192 17.1819 30.4562 17.0449C30.5932 16.9078 30.7559 16.7991 30.9351 16.7249C31.1141 16.6507 31.3062 16.6125 31.5 16.6124C31.6939 16.6124 31.886 16.6506 32.0651 16.7248C32.2442 16.7989 32.407 16.9076 32.5441 17.0447C32.6812 17.1817 32.7899 17.3444 32.864 17.5234C32.9381 17.7024 32.9762 17.8943 32.9761 18.088C32.9763 18.2818 32.9382 18.4736 32.8642 18.6527C32.7902 18.8317 32.6815 18.9944 32.5444 19.1315C32.4074 19.2686 32.2447 19.3774 32.0656 19.4516C31.8864 19.5258 31.6945 19.5641 31.5005 19.5641C31.3065 19.5641 31.1145 19.5259 30.9352 19.4517C30.7561 19.3775 30.5933 19.2688 30.4562 19.1317C30.3192 18.9946 30.2105 18.8319 30.1363 18.6528ZM30.3181 15.2354C30.6928 15.0801 31.0945 15.0002 31.5003 15C31.906 15.0002 32.3077 15.0802 32.6826 15.2354C33.0574 15.3907 33.398 15.6183 33.6848 15.9051C33.9716 16.1919 34.199 16.5324 34.3541 16.907C34.5092 17.2816 34.5889 17.6831 34.5886 18.0885C34.5889 18.4939 34.5092 18.8954 34.3541 19.2701C34.199 19.6447 33.9716 19.9852 33.6848 20.272C33.398 20.5588 33.0574 20.7863 32.6826 20.9416C32.3076 21.0969 31.9058 21.1769 31.5 21.1771C31.0942 21.1769 30.6924 21.0968 30.3175 20.9414C29.9427 20.7861 29.6022 20.5585 29.3154 20.2716C29.0286 19.9848 28.8012 19.6443 28.6462 19.2696C28.4912 18.8949 28.4116 18.4934 28.4119 18.088C28.4117 17.6827 28.4914 17.2812 28.6465 16.9066C28.8017 16.5321 29.0291 16.1917 29.3159 15.9049C29.6027 15.6182 29.9433 15.3906 30.3181 15.2354ZM30.1363 47.4757C30.0622 47.2967 30.0243 47.1047 30.0244 46.9109C30.0243 46.7173 30.0624 46.5254 30.1364 46.3465C30.2106 46.1674 30.3192 46.0048 30.4562 45.8678C30.5932 45.7307 30.7559 45.622 30.9351 45.5478C31.1141 45.4736 31.3062 45.4354 31.5 45.4354C31.6939 45.4354 31.8859 45.4736 32.065 45.5478C32.2442 45.622 32.4069 45.7307 32.544 45.8678C32.681 46.0048 32.7897 46.1674 32.8639 46.3464C32.9381 46.5254 32.9762 46.7172 32.9761 46.9109C32.9763 47.1047 32.9382 47.2966 32.8642 47.4756C32.7902 47.6546 32.6815 47.8173 32.5444 47.9544C32.4074 48.0915 32.2447 48.2003 32.0656 48.2745C31.8864 48.3487 31.6945 48.387 31.5005 48.387C31.3065 48.387 31.1145 48.3489 30.9352 48.2747C30.7561 48.2005 30.5933 48.0917 30.4562 47.9547C30.3192 47.8175 30.2105 47.6548 30.1363 47.4757ZM30.3181 44.0583C30.6928 43.9031 31.0945 43.823 31.5003 43.823C31.906 43.823 32.3077 43.9031 32.6826 44.0583C33.0574 44.2136 33.398 44.4412 33.6848 44.728C33.9716 45.0148 34.199 45.3552 34.3541 45.7299C34.5092 46.1045 34.5889 46.506 34.5886 46.9115C34.5889 47.3168 34.5092 47.7184 34.3541 48.093C34.199 48.4676 33.9716 48.8081 33.6848 49.0948C33.398 49.3817 33.0574 49.6093 32.6826 49.7645C32.3076 49.9199 31.9058 49.9998 31.5 50C31.0942 49.9998 30.6924 49.9197 30.3175 49.7643C29.9427 49.609 29.6022 49.3814 29.3154 49.0945C29.0286 48.8077 28.8012 48.4672 28.6462 48.0925C28.4912 47.7178 28.4116 47.3163 28.4119 46.9109C28.4117 46.5056 28.4914 46.1041 28.6465 45.7296C28.8017 45.355 29.0291 45.0146 29.3159 44.7278C29.6027 44.4411 29.9433 44.2135 30.3181 44.0583ZM44.8776 33.5244C44.6016 33.2538 44.443 32.8857 44.4358 32.4995C44.4356 32.1084 44.5911 31.7332 44.8678 31.4565C45.1444 31.1797 45.5198 31.0242 45.9114 31.0239C46.1053 31.0239 46.2974 31.0621 46.4765 31.1362C46.6556 31.2104 46.8184 31.3191 46.9555 31.4561C47.0926 31.5932 47.2013 31.7559 47.2754 31.9349C47.3495 32.1139 47.3876 32.3057 47.3875 32.4995C47.3803 32.8857 47.2216 33.2538 46.9457 33.5244C46.6696 33.7951 46.2984 33.9468 45.9117 33.9468C45.5249 33.9468 45.1536 33.7951 44.8776 33.5244ZM44.7295 29.6468C45.1043 29.4915 45.5061 29.4116 45.9119 29.4115C46.3177 29.4117 46.7193 29.4917 47.0941 29.647C47.4689 29.8023 47.8094 30.0298 48.0961 30.3166C48.3829 30.6033 48.6103 30.9437 48.7654 31.3182C48.9205 31.6928 49.0002 32.0942 49 32.4995C49.0003 32.9048 48.9206 33.3063 48.7656 33.6809C48.6105 34.0555 48.3831 34.3959 48.0963 34.6828C47.8096 34.9696 47.4691 35.1971 47.0942 35.3524C46.7194 35.5078 46.3177 35.5878 45.9119 35.588C45.5061 35.5879 45.1042 35.5079 44.7294 35.3526C44.3545 35.1973 44.0139 34.9698 43.7271 34.6829C43.4403 34.3961 43.2129 34.0556 43.0578 33.681C42.9026 33.3064 42.823 32.9049 42.8232 32.4995C42.823 32.0941 42.9028 31.6927 43.0579 31.3181C43.2131 30.9435 43.4405 30.6031 43.7273 30.3164C44.0141 30.0296 44.3547 29.8021 44.7295 29.6468ZM15.7245 33.0642C15.6504 32.8852 15.6123 32.6932 15.6125 32.4995C15.6124 32.3057 15.65 32.1139 15.7241 31.9349C15.7982 31.7559 15.9069 31.5932 16.044 31.4561C16.1811 31.3191 16.3439 31.2104 16.523 31.1362C16.7022 31.0621 16.8942 31.0239 17.0881 31.0239C17.282 31.0239 17.4741 31.0621 17.6532 31.1362C17.8324 31.2104 17.9952 31.3191 18.1322 31.4561C18.2693 31.5932 18.378 31.7559 18.4521 31.9349C18.5263 32.1139 18.5643 32.3057 18.5642 32.4995C18.5644 32.6932 18.5264 32.8851 18.4523 33.0641C18.3783 33.2432 18.2696 33.4059 18.1326 33.543C17.9956 33.68 17.8328 33.7888 17.6537 33.863C17.4746 33.9373 17.2826 33.9755 17.0886 33.9756C16.8947 33.9756 16.7026 33.9374 16.5234 33.8632C16.3442 33.789 16.1814 33.6802 16.0443 33.5432C15.9072 33.4061 15.7986 33.2434 15.7245 33.0642ZM15.9062 29.6468C16.281 29.4916 16.6827 29.4116 17.0884 29.4115C17.4941 29.4116 17.8958 29.4916 18.2705 29.6468C18.6453 29.8021 18.9859 30.0296 19.2727 30.3164C19.5595 30.6031 19.787 30.9435 19.9421 31.3181C20.0972 31.6927 20.1769 32.0941 20.1767 32.4995C20.177 32.9049 20.0973 33.3064 19.9422 33.681C19.7872 34.0556 19.5597 34.3961 19.2729 34.6829C18.9861 34.9698 18.6455 35.1973 18.2706 35.3526C17.8958 35.5079 17.4939 35.5879 17.0881 35.588C16.6823 35.5878 16.2806 35.5078 15.9058 35.3524C15.531 35.1971 15.1904 34.9696 14.9037 34.6828C14.6169 34.3959 14.3895 34.0555 14.2345 33.6809C14.0794 33.3063 13.9997 32.9048 14 32.4995C13.9998 32.0941 14.0795 31.6927 14.2347 31.3181C14.3898 30.9435 14.6172 30.6031 14.904 30.3164C15.1909 30.0296 15.5314 29.8021 15.9062 29.6468ZM20.7462 23.6723C20.5671 23.5982 20.4045 23.4895 20.2675 23.3525C19.9908 23.0756 19.8354 22.7004 19.8354 22.3091C19.8354 21.9179 19.9908 21.5426 20.2675 21.2657C20.4045 21.1287 20.5671 21.02 20.7462 20.9459C20.9252 20.8717 21.1171 20.8336 21.3109 20.8336C21.5048 20.8336 21.6967 20.8717 21.8757 20.9459C22.0547 21.02 22.2174 21.1287 22.3543 21.2657C22.6311 21.5426 22.7865 21.9179 22.7865 22.3091C22.7865 22.7004 22.6311 23.0756 22.3543 23.3525C22.2174 23.4895 22.0547 23.5982 21.8757 23.6723C21.6967 23.7465 21.5048 23.7847 21.3109 23.7847C21.1171 23.7847 20.9252 23.7465 20.7462 23.6723ZM18.223 22.3091C18.223 21.4903 18.5482 20.705 19.1272 20.1256C19.4139 19.8389 19.7543 19.6114 20.129 19.4562C20.5037 19.301 20.9053 19.2211 21.3109 19.2211C21.7166 19.2211 22.1182 19.301 22.4929 19.4562C22.8676 19.6114 23.2081 19.8389 23.4946 20.1256C24.0737 20.705 24.3989 21.4903 24.3989 22.3091C24.3989 23.1279 24.0737 23.9132 23.4946 24.4926C23.2081 24.7794 22.8676 25.0068 22.4929 25.162C22.1182 25.3172 21.7166 25.3971 21.3109 25.3971C20.9053 25.3971 20.5037 25.3172 20.129 25.162C19.7543 25.0068 19.4139 24.7794 19.1272 24.4926C18.5482 23.9132 18.223 23.1279 18.223 22.3091ZM41.1258 44.0534C40.9469 43.9793 40.7842 43.8707 40.6472 43.7337C40.3703 43.4569 40.2147 43.0815 40.2147 42.6901C40.2147 42.2987 40.3703 41.9234 40.6472 41.6465C40.7842 41.5095 40.9468 41.4008 41.1258 41.3266C41.3048 41.2525 41.4967 41.2143 41.6906 41.2143C41.8844 41.2143 42.0763 41.2525 42.2553 41.3266C42.4344 41.4008 42.5971 41.5095 42.734 41.6465C43.0108 41.9234 43.1662 42.2987 43.1662 42.6901C43.1662 43.0814 43.0108 43.4568 42.734 43.7337C42.597 43.8707 42.4344 43.9793 42.2553 44.0534C42.0763 44.1275 41.8844 44.1657 41.6906 44.1657C41.4968 44.1657 41.3048 44.1275 41.1258 44.0534ZM38.6024 42.6901C38.6024 41.8712 38.9277 41.0858 39.5069 40.5064C39.7935 40.2197 40.1339 39.9922 40.5086 39.837C40.8833 39.6817 41.2849 39.6019 41.6906 39.6019C42.0962 39.6019 42.4979 39.6817 42.8726 39.837C43.2473 39.9922 43.5877 40.2197 43.8743 40.5064C44.4536 41.0858 44.779 41.8712 44.779 42.6901C44.779 43.509 44.4536 44.2945 43.8743 44.8738C43.5877 45.1606 43.2473 45.3881 42.8726 45.5432C42.4979 45.6985 42.0962 45.7784 41.6906 45.7784C41.2849 45.7784 40.8833 45.6985 40.5086 45.5432C40.1339 45.3881 39.7935 45.1606 39.5069 44.8738C38.9277 44.2944 38.6024 43.509 38.6024 42.6901ZM41.1258 23.6723C40.9468 23.5982 40.7842 23.4895 40.6472 23.3525C40.3704 23.0756 40.215 22.7004 40.215 22.3091C40.215 21.9179 40.3704 21.5426 40.6472 21.2657C40.7842 21.1287 40.9468 21.02 41.1258 20.9459C41.3048 20.8717 41.4967 20.8336 41.6906 20.8336C41.8844 20.8336 42.0763 20.8717 42.2553 20.9459C42.4344 21.02 42.5971 21.1287 42.734 21.2657C43.0106 21.5427 43.1659 21.9179 43.1659 22.3091C43.1659 22.7003 43.0106 23.0755 42.734 23.3525C42.5971 23.4895 42.4344 23.5982 42.2553 23.6723C42.0763 23.7465 41.8844 23.7847 41.6906 23.7847C41.4967 23.7847 41.3048 23.7465 41.1258 23.6723ZM38.6026 22.3091C38.6026 21.4903 38.9278 20.705 39.5069 20.1256C39.7935 19.8389 40.1339 19.6114 40.5086 19.4562C40.8833 19.301 41.2849 19.2211 41.6906 19.2211C42.0962 19.2211 42.4979 19.301 42.8726 19.4562C43.2473 19.6114 43.5877 19.8389 43.8743 20.1256C44.4534 20.705 44.7787 21.4903 44.7787 22.3091C44.7787 23.1279 44.4534 23.9133 43.8743 24.4926C43.5877 24.7794 43.2473 25.0068 42.8726 25.162C42.4979 25.3172 42.0962 25.3971 41.6906 25.3971C41.2849 25.3971 40.8833 25.3172 40.5086 25.162C40.1339 25.0068 39.7935 24.7794 39.5069 24.4926C38.9278 23.9132 38.6026 23.1279 38.6026 22.3091ZM20.7462 44.0536C20.5671 43.9795 20.4045 43.8707 20.2675 43.7337C19.9907 43.4569 19.8351 43.0815 19.8351 42.6901C19.8351 42.2987 19.9907 41.9234 20.2675 41.6465C20.4045 41.5095 20.5671 41.4008 20.7462 41.3266C20.9252 41.2525 21.1171 41.2143 21.3109 41.2143C21.5048 41.2143 21.6967 41.2525 21.8757 41.3266C22.0547 41.4008 22.2174 41.5095 22.3543 41.6465C22.6312 41.9234 22.7868 42.2987 22.7868 42.6901C22.7868 43.0815 22.6312 43.4569 22.3543 43.7337C22.2174 43.8707 22.0547 43.9795 21.8757 44.0536C21.6967 44.1277 21.5048 44.166 21.3109 44.166C21.1171 44.166 20.9252 44.1277 20.7462 44.0536ZM18.2227 42.6901C18.2227 41.8712 18.548 41.0858 19.1272 40.5064C19.4139 40.2197 19.7543 39.9922 20.129 39.837C20.5037 39.6817 20.9053 39.6019 21.3109 39.6019C21.7166 39.6019 22.1182 39.6817 22.4929 39.837C22.8676 39.9922 23.2081 40.2197 23.4946 40.5064C24.0738 41.0858 24.3991 41.8712 24.3991 42.6901C24.3991 43.509 24.0738 44.2944 23.4946 44.8738C23.2081 45.1606 22.8676 45.3881 22.4929 45.5432C22.1182 45.6985 21.7166 45.7784 21.3109 45.7784C20.9053 45.7784 20.5037 45.6985 20.129 45.5432C19.7543 45.3881 19.4139 45.1606 19.1272 44.8738C18.548 44.2944 18.2227 43.509 18.2227 42.6901ZM28.6465 31.3182C28.4914 31.6928 28.4117 32.0941 28.4119 32.4995C28.4117 32.9048 28.4913 33.3068 28.6463 33.6814C28.8014 34.056 29.0288 34.3965 29.3156 34.6832C29.6024 34.97 29.9429 35.1976 30.3176 35.353C30.6925 35.5082 31.0943 35.5883 31.5 35.5885C31.9059 35.5884 32.3078 35.5084 32.6826 35.353C33.0576 35.1977 33.3982 34.9701 33.685 34.6832C33.9718 34.3964 34.1992 34.0559 34.3543 33.6811C34.5094 33.3064 34.589 32.9049 34.5886 32.4995C34.5889 32.0941 34.5091 31.6927 34.354 31.3181C34.1989 30.9435 33.9714 30.6031 33.6846 30.3164C33.3978 30.0296 33.0572 29.8021 32.6825 29.6468C32.3076 29.4915 31.9058 29.4116 31.5 29.4115C31.0943 29.4117 30.6926 29.4917 30.3178 29.647C29.943 29.8022 29.6026 30.0298 29.3157 30.3166C29.029 30.6033 28.8016 30.9437 28.6465 31.3182ZM30.5487 23.8709C30.4969 23.9957 30.4703 24.1295 30.4703 24.2646V26.3234C30.4703 26.4585 30.4969 26.5923 30.5487 26.717C30.6004 26.8419 30.6763 26.9553 30.7719 27.0508C30.8675 27.1463 30.981 27.2221 31.1059 27.2738C31.2309 27.3255 31.3648 27.3521 31.5 27.3521C31.6352 27.3521 31.7691 27.3255 31.8941 27.2738C32.019 27.2221 32.1325 27.1463 32.2282 27.0508C32.3238 26.9553 32.3996 26.8419 32.4514 26.717C32.5031 26.5923 32.5297 26.4585 32.5297 26.3234V24.2646C32.5297 24.1295 32.5031 23.9957 32.4514 23.8709C32.3996 23.7461 32.3238 23.6327 32.2282 23.5372C32.1325 23.4417 32.019 23.3659 31.8941 23.3142C31.7691 23.2625 31.6352 23.2359 31.5 23.2359C31.3648 23.2359 31.2309 23.2625 31.1059 23.3142C30.981 23.3659 30.8675 23.4417 30.7719 23.5372C30.6763 23.6327 30.6004 23.7461 30.5487 23.8709ZM40.7649 32.5C40.7649 31.9314 40.3038 31.4703 39.7351 31.4703H37.6768C37.5414 31.4703 37.4075 31.497 37.2824 31.5487C37.1574 31.6004 37.0439 31.6763 36.9482 31.7719C36.8527 31.8676 36.7768 31.9811 36.7251 32.106C36.6734 32.231 36.6469 32.3648 36.6471 32.5C36.647 32.6351 36.6735 32.7688 36.7252 32.8936C36.7769 33.0185 36.8528 33.1319 36.9483 33.2275C37.0438 33.3231 37.1573 33.3989 37.2823 33.4507C37.4071 33.5024 37.541 33.5291 37.6762 33.5292H39.7351C39.8705 33.5292 40.0044 33.5025 40.1293 33.4508C40.2543 33.3991 40.3678 33.3232 40.4635 33.2277C40.5591 33.1321 40.6349 33.0186 40.6866 32.8938C40.7384 32.7689 40.7649 32.6351 40.7649 32.5ZM32.4514 41.1285C32.5031 41.0037 32.5297 40.8699 32.5297 40.7349V38.676C32.5297 38.5409 32.5031 38.4072 32.4514 38.2824C32.3996 38.1575 32.3238 38.0442 32.2282 37.9486C32.1325 37.8531 32.019 37.7774 31.8941 37.7257C31.7691 37.674 31.6352 37.6473 31.5 37.6473C31.3648 37.6473 31.2309 37.674 31.1059 37.7257C30.981 37.7774 30.8675 37.8531 30.7719 37.9486C30.6763 38.0442 30.6004 38.1575 30.5487 38.2824C30.4969 38.4072 30.4703 38.5409 30.4703 38.676V40.7349C30.4703 40.8699 30.4969 41.0037 30.5487 41.1285C30.6004 41.2533 30.6763 41.3668 30.7719 41.4622C30.8675 41.5577 30.981 41.6336 31.1059 41.6853C31.2309 41.737 31.3648 41.7635 31.5 41.7635C31.6352 41.7635 31.7691 41.737 31.8941 41.6853C32.019 41.6336 32.1325 41.5577 32.2282 41.4622C32.3238 41.3668 32.3996 41.2533 32.4514 41.1285ZM22.8706 33.4508C22.9956 33.5025 23.1296 33.5292 23.2649 33.5292H25.3233C25.5966 33.5292 25.8587 33.4207 26.0519 33.2277C26.2452 33.0346 26.3537 32.7727 26.3537 32.4997C26.3537 32.2267 26.2452 31.9649 26.0519 31.7718C25.8587 31.5788 25.5966 31.4703 25.3233 31.4703H23.2649C23.1296 31.4703 22.9957 31.4969 22.8707 31.5486C22.7457 31.6003 22.6322 31.6762 22.5366 31.7717C22.441 31.8673 22.3651 31.9808 22.3134 32.1057C22.2617 32.2305 22.2351 32.3643 22.2352 32.4995C22.235 32.6346 22.2616 32.7685 22.3133 32.8934C22.3649 33.0184 22.4408 33.1319 22.5364 33.2275C22.632 33.3231 22.7456 33.399 22.8706 33.4508ZM36.9292 25.7253C36.8043 25.7771 36.6909 25.8529 36.5953 25.9485L35.1396 27.4043C34.9464 27.5974 34.838 27.8592 34.838 28.1322C34.838 28.4052 34.9464 28.667 35.1396 28.8601C35.235 28.9557 35.3486 29.0315 35.4734 29.0833C35.5983 29.135 35.7322 29.1616 35.8675 29.1616C36.0026 29.1616 36.1365 29.135 36.2614 29.0833C36.3863 29.0315 36.4998 28.9557 36.5953 28.8601L38.0511 27.4043C38.4533 27.0024 38.4533 26.3508 38.0511 25.9485C37.9555 25.8529 37.8421 25.7771 37.7172 25.7253C37.5923 25.6736 37.4584 25.6469 37.3232 25.6469C37.188 25.6469 37.0541 25.6736 36.9292 25.7253ZM37.7172 39.2737C37.8421 39.2219 37.9555 39.1461 38.0511 39.0505C38.4533 38.6487 38.4533 37.997 38.0511 37.5952L36.5953 36.1388C36.4998 36.0433 36.3863 35.9674 36.2614 35.9157C36.1365 35.864 36.0026 35.8373 35.8675 35.8373C35.7322 35.8373 35.5983 35.864 35.4734 35.9157C35.3486 35.9674 35.235 36.0433 35.1396 36.1388C34.9464 36.332 34.838 36.5938 34.838 36.8668C34.838 37.1397 34.9464 37.4015 35.1396 37.5947L36.5953 39.0505C36.6909 39.1461 36.8043 39.2219 36.9292 39.2737C37.0541 39.3254 37.188 39.352 37.3232 39.352C37.4584 39.352 37.5923 39.3254 37.7172 39.2737ZM26.0709 39.2737C26.1957 39.2219 26.3092 39.1461 26.4047 39.0505L27.8605 37.5952C28.2628 37.1933 28.2628 36.5412 27.8605 36.1393C27.765 36.0437 27.6515 35.9679 27.5266 35.9162C27.4018 35.8645 27.2679 35.8378 27.1326 35.8378C26.9974 35.8378 26.8636 35.8645 26.7387 35.9162C26.6137 35.9679 26.5003 36.0437 26.4047 36.1393L24.9489 37.5952C24.756 37.7883 24.6477 38.05 24.6477 38.3228C24.6477 38.5957 24.756 38.8574 24.9489 39.0505C25.0445 39.1461 25.1579 39.2219 25.2828 39.2737C25.4078 39.3254 25.5417 39.352 25.6768 39.352C25.8121 39.352 25.9459 39.3254 26.0709 39.2737ZM24.6484 26.6758C24.6484 26.9488 24.7568 27.2106 24.95 27.4037L26.4058 28.8591C26.5013 28.9547 26.6147 29.0305 26.7396 29.0822C26.8646 29.134 26.9985 29.1606 27.1336 29.1606C27.2689 29.1606 27.4028 29.134 27.5277 29.0822C27.6525 29.0305 27.766 28.9547 27.8615 28.8591C28.2633 28.4578 28.2633 27.8056 27.8615 27.4037L26.4058 25.9479C26.3102 25.8523 26.1968 25.7765 26.0719 25.7248C25.9469 25.673 25.813 25.6465 25.6779 25.6465C25.5426 25.6465 25.4087 25.673 25.2838 25.7248C25.159 25.7765 25.0455 25.8523 24.95 25.9479C24.7568 26.1411 24.6484 26.4029 24.6484 26.6758Z" fill="black"/>
</svg>
