<svg width="64" height="64" viewBox="0 0 64 64" fill="none" xmlns="http://www.w3.org/2000/svg">
<rect width="64" height="64" rx="12" fill="white"/>
<path d="M29.1147 19H20.052C18.3664 19 17 20.378 17 22.0778V27.8388C17 29.5387 18.3664 30.9167 20.052 30.9167H29.1147C30.8003 30.9167 32.1667 29.5387 32.1667 27.8388V22.0778C32.1667 20.378 30.8003 19 29.1147 19Z" fill="black"/>
<path d="M40.2917 30.9167C43.5824 30.9167 46.25 28.249 46.25 24.9583C46.25 21.6676 43.5824 19 40.2917 19C37.001 19 34.3333 21.6676 34.3333 24.9583C34.3333 28.249 37.001 30.9167 40.2917 30.9167Z" fill="black"/>
<path d="M34.1207 45H43.2127C44.8902 45 46.25 43.6286 46.25 41.9369V36.1465C46.25 34.4548 44.8902 33.0833 43.2127 33.0833H34.1207C32.4432 33.0833 31.0833 34.4548 31.0833 36.1465V41.9369C31.0833 43.6286 32.4432 45 34.1207 45Z" fill="black"/>
<path d="M22.9583 45C26.249 45 28.9167 42.3323 28.9167 39.0417C28.9167 35.7509 26.249 33.0833 22.9583 33.0833C19.6676 33.0833 17 35.7509 17 39.0417C17 42.3323 19.6676 45 22.9583 45Z" fill="black"/>
</svg>
